<svg version="1.0" xmlns="http://www.w3.org/2000/svg"
 width="256.000000pt" height="256.000000pt" viewBox="0 0 256 256">
<g transform="translate(0.000000,256.000000) scale(0.100000,-0.100000)"
fill="#fc4c02" stroke="none">
<path d="M280 2332 c-74 -37 -70 27 -70 -1052 0 -899 1 -967 18 -1000 35 -71
25 -70 605 -70 l517 0 0 415 0 415 -135 0 -135 0 0 160 0 160 135 0 135 0 0
163 c0 176 11 237 54 311 37 63 127 141 194 168 52 21 71 23 225 21 93 0 173
-5 177 -9 5 -5 10 -70 11 -144 l2 -135 -114 -6 c-196 -11 -202 -18 -209 -216
-3 -80 -3 -147 -1 -149 2 -2 73 -4 158 -4 l153 0 -1 -32 c0 -18 -8 -89 -17
-158 l-17 -125 -138 -3 -137 -3 0 -404 c0 -223 0 -408 0 -412 0 -5 125 -9 277
-11 313 -2 332 1 365 68 17 33 18 101 18 1000 0 1079 4 1015 -70 1052 -33 17
-101 18 -1000 18 -899 0 -967 -1 -1000 -18z"/>
</g>
</svg>
