<?xml version="1.0" standalone="no"?>
<!DOCTYPE svg PUBLIC "-//W3C//DTD SVG 20010904//EN"
 "http://www.w3.org/TR/2001/REC-SVG-20010904/DTD/svg10.dtd">
<svg version="1.0" xmlns="http://www.w3.org/2000/svg"
 width="256.000000pt" height="256.000000pt" viewBox="0 0 256.000000 256.000000"
 preserveAspectRatio="none">

<g transform="translate(0.000000,256.000000) scale(0.100000,-0.100000)"
fill="#fc4c02" stroke="none">
<path d="M310 2328 c-24 -13 -53 -36 -64 -51 -21 -28 -21 -35 -21 -997 0 -962
0 -969 21 -997 11 -15 40 -38 64 -51 l44 -22 926 0 926 0 44 22 c24 13 53 36
64 51 21 28 21 35 21 997 0 962 0 969 -21 997 -11 15 -40 38 -64 51 l-44 22
-926 0 -926 0 -44 -22z m486 -359 c136 -65 115 -267 -32 -308 -44 -12 -124 1
-159 26 -44 33 -68 89 -63 149 6 67 29 101 88 132 55 28 111 28 166 1z m995
-448 c98 -38 159 -105 200 -222 22 -61 23 -81 27 -401 l4 -338 -160 0 -161 0
-3 298 c-3 279 -4 300 -25 344 -24 54 -56 78 -111 85 -76 10 -151 -31 -183
-101 -17 -37 -19 -70 -19 -333 l0 -293 -160 0 -160 0 0 480 0 480 160 0 160 0
0 -61 0 -61 44 45 c47 49 102 81 163 97 53 13 164 3 224 -19z m-931 -481 l0
-480 -160 0 -160 0 0 480 0 480 160 0 160 0 0 -480z"/>
</g>
</svg>
