<?xml version="1.0" standalone="no"?>
<!DOCTYPE svg PUBLIC "-//W3C//DTD SVG 20010904//EN"
 "http://www.w3.org/TR/2001/REC-SVG-20010904/DTD/svg10.dtd">
<svg version="1.0" xmlns="http://www.w3.org/2000/svg"
 width="256.000000pt" height="256.000000pt" viewBox="0 0 256.000000 256.000000"
 preserveAspectRatio="none">

<g transform="translate(0.000000,256.000000) scale(0.100000,-0.100000)"
fill="#fc4c02" stroke="none">
<path d="M95 2226 c-65 -28 -100 -97 -93 -178 l3 -37 633 -396 c349 -217 638
-395 642 -395 5 0 294 178 642 396 l633 395 0 64 c0 69 -15 99 -69 139 -27 21
-33 21 -1194 23 -955 2 -1173 0 -1197 -11z"/>
<path d="M2 1121 c3 -689 3 -700 24 -727 11 -15 33 -37 48 -48 27 -21 31 -21
1206 -21 1175 0 1179 0 1206 21 15 11 37 33 48 48 21 27 21 38 24 727 1 384 0
699 -2 699 -3 0 -287 -176 -631 -391 -510 -319 -630 -390 -653 -387 -15 3
-305 179 -645 391 -340 213 -620 387 -623 387 -2 0 -3 -315 -2 -699z"/>
</g>
</svg>
