<?xml version="1.0" standalone="no"?>
<!DOCTYPE svg PUBLIC "-//W3C//DTD SVG 20010904//EN"
 "http://www.w3.org/TR/2001/REC-SVG-20010904/DTD/svg10.dtd">
<svg version="1.0" xmlns="http://www.w3.org/2000/svg"
 width="512.000000pt" height="512.000000pt" viewBox="0 0 512.000000 512.000000"
 preserveAspectRatio="xMidYMid meet">

<g transform="translate(0.000000,512.000000) scale(0.100000,-0.100000)"
fill="#fc4c02" stroke="none">
<path d="M3705 4814 c-357 -79 -605 -387 -605 -748 0 -118 17 -208 58 -305
l30 -70 -662 -345 -661 -344 -80 76 c-132 126 -262 188 -447 212 -105 14 -218
1 -336 -39 -118 -41 -185 -84 -287 -186 -73 -72 -100 -108 -138 -181 -183
-357 -71 -783 262 -999 301 -195 692 -155 954 97 l62 60 75 -40 c41 -22 325
-169 630 -327 305 -158 564 -293 576 -301 l21 -12 -25 -74 c-31 -89 -42 -281
-22 -381 87 -451 563 -727 1000 -582 438 146 649 641 451 1059 -51 109 -120
197 -209 268 -218 173 -478 218 -740 129 -110 -38 -181 -82 -273 -168 -42 -40
-79 -73 -82 -73 -7 0 -1279 660 -1289 669 -4 4 5 42 19 86 24 72 27 95 27 230
1 130 -2 160 -22 224 -13 40 -20 77 -15 82 4 4 306 163 671 354 l664 345 52
-47 c149 -135 382 -209 582 -184 179 22 317 87 446 210 162 153 237 331 238
557 0 291 -163 555 -424 683 -45 22 -108 47 -141 56 -87 24 -273 28 -360 9z"/>
</g>
</svg>
