<?xml version="1.0" standalone="no"?>
<!DOCTYPE svg PUBLIC "-//W3C//DTD SVG 20010904//EN"
 "http://www.w3.org/TR/2001/REC-SVG-20010904/DTD/svg10.dtd">
<svg version="1.0" xmlns="http://www.w3.org/2000/svg"
 width="256.000000pt" height="256.000000pt" viewBox="0 0 256.000000 256.000000"
 preserveAspectRatio="none">

<g transform="translate(0.000000,256.000000) scale(0.100000,-0.100000)"
fill="#fc4c02" stroke="none">
<path d="M175 2466 c-41 -18 -83 -69 -90 -109 -3 -18 -4 -514 -3 -1104 3
-1064 3 -1072 24 -1099 11 -15 33 -37 48 -48 27 -21 32 -21 1125 -21 l1098 0
35 27 c73 56 69 -27 66 1182 -3 1078 -3 1085 -24 1112 -11 15 -33 37 -48 48
-27 21 -34 21 -1114 23 -888 2 -1093 0 -1117 -11z m1603 -526 c26 -12 63 -34
84 -50 l36 -29 93 29 c51 16 94 28 96 26 7 -6 -44 -92 -73 -123 -19 -20 -34
-37 -34 -39 0 -6 76 9 114 23 22 7 41 11 43 9 3 -2 -29 -40 -71 -84 l-76 -79
0 -71 c0 -90 -24 -214 -60 -314 -153 -418 -582 -686 -1019 -638 -139 15 -317
71 -380 119 -24 18 -24 18 47 20 114 3 256 49 340 110 45 33 53 51 25 51 -10
0 -47 14 -83 31 -72 34 -151 104 -181 161 l-19 37 78 3 77 3 -59 33 c-114 65
-191 165 -203 263 l-6 49 34 -14 c19 -7 49 -17 68 -21 l35 -7 -41 46 c-99 113
-125 267 -67 405 l14 33 43 -59 c129 -174 389 -303 613 -303 l54 0 0 65 c0
154 105 288 259 332 60 17 159 9 219 -17z"/>
</g>
</svg>
