<?xml version="1.0" standalone="no"?>
<!DOCTYPE svg PUBLIC "-//W3C//DTD SVG 20010904//EN"
 "http://www.w3.org/TR/2001/REC-SVG-20010904/DTD/svg10.dtd">
<svg version="1.0" xmlns="http://www.w3.org/2000/svg"
 width="256.000000pt" height="256.000000pt" viewBox="0 0 256.000000 256.000000"
 preserveAspectRatio="none">

<g transform="translate(0.000000,256.000000) scale(0.100000,-0.100000)"
fill="#fc4c02" stroke="none">
<path d="M310 2546 c-144 -39 -259 -154 -295 -293 -14 -53 -15 -174 -13 -989
l3 -929 32 -67 c60 -126 170 -213 302 -238 33 -6 389 -10 940 -10 952 0 942 0
1043 51 67 34 145 115 181 188 l32 66 0 965 0 965 -27 57 c-54 115 -141 192
-257 229 -60 18 -98 19 -979 18 -697 0 -928 -3 -962 -13z m1200 -397 c431
-109 712 -541 636 -977 -59 -341 -301 -603 -641 -693 -172 -46 -398 -24 -573
56 l-77 36 -263 -55 c-144 -29 -262 -50 -262 -46 0 4 38 120 85 258 l86 250
-27 88 c-39 132 -45 308 -14 440 67 293 281 528 567 624 159 53 324 59 483 19z"/>
<path d="M1122 1980 c-228 -60 -412 -238 -484 -470 -19 -62 -23 -96 -22 -200
0 -114 3 -133 33 -221 l32 -96 -60 -159 c-34 -88 -61 -163 -61 -166 0 -3 76
14 169 38 l169 44 73 -39 c106 -57 202 -81 324 -81 199 0 346 60 486 200 74
72 93 99 132 180 57 120 71 180 71 305 0 121 -19 199 -76 315 -58 120 -177
238 -298 298 -47 23 -114 48 -150 57 -91 21 -247 19 -338 -5z m-23 -319 c43
-54 111 -172 111 -193 0 -9 -16 -37 -35 -62 -35 -46 -35 -47 -19 -79 29 -57
74 -106 139 -152 34 -25 67 -45 72 -45 5 0 27 18 48 40 53 54 78 52 185 -13
77 -47 85 -55 88 -86 2 -19 -4 -53 -13 -77 -29 -76 -137 -127 -232 -109 -197
37 -406 221 -516 453 -27 57 -32 78 -32 142 1 87 22 138 80 188 50 45 85 43
124 -7z"/>
</g>
</svg>
