<?xml version="1.0" standalone="no"?>
<!DOCTYPE svg PUBLIC "-//W3C//DTD SVG 20010904//EN"
 "http://www.w3.org/TR/2001/REC-SVG-20010904/DTD/svg10.dtd">
<svg version="1.0" xmlns="http://www.w3.org/2000/svg"
 width="550.000000pt" height="298.000000pt" viewBox="0 0 550.000000 298.000000"
 preserveAspectRatio="xMidYMid meet">

<g transform="translate(0.000000,298.000000) scale(0.100000,-0.100000)"
fill="#033576" stroke="none">
<path d="M0 2445 c0 -295 4 -534 8 -531 4 3 14 1 22 -5 12 -7 10 -9 -7 -9 -23
0 -23 0 -23 -176 l0 -177 56 -73 c31 -41 59 -72 63 -70 3 2 5 40 3 85 l-3 80
-49 3 -49 3 86 103 c70 85 88 101 98 90 38 -39 155 -183 155 -190 0 -4 -20 -8
-45 -8 l-45 0 0 -158 0 -159 -30 -1 c-30 -1 -31 1 -28 39 2 22 8 39 13 39 6
-1 8 -9 7 -18 -2 -9 -1 -14 3 -10 4 4 6 72 6 152 l-2 146 36 0 37 0 -30 38
c-17 20 -43 52 -59 71 l-29 34 -57 -69 -58 -69 36 -3 35 -3 -1 -125 c-1 -98
-4 -124 -15 -124 -8 0 -14 7 -14 15 0 11 -11 15 -37 15 l-38 0 0 -132 c0 -96
-3 -132 -13 -136 -9 -3 -12 31 -12 147 l0 151 26 0 25 0 -33 46 -33 46 -3
-193 c-1 -126 1 -195 8 -197 13 -5 13 -102 0 -102 -7 0 -10 -175 -10 -505 l0
-505 2750 0 2750 0 0 760 0 760 -40 0 c-22 0 -40 5 -40 10 0 6 18 10 40 10
l40 0 0 195 c0 193 0 196 -20 185 -18 -9 -20 -8 -20 15 0 27 9 32 28 13 9 -9
12 34 12 194 0 206 0 207 -22 211 l-23 4 23 2 22 1 0 310 0 310 -2750 0 -2750
0 0 -535z m2690 336 c-7 -15 -8 -27 0 -40 17 -33 11 -47 -10 -21 -24 31 -25
49 -3 80 19 27 30 12 13 -19z m40 0 c-8 -15 -8 -27 0 -42 6 -11 9 -25 7 -32
-2 -7 -12 4 -22 24 -17 35 -17 37 1 64 20 30 32 18 14 -14z m40 4 c-10 -12
-10 -21 0 -45 18 -43 4 -50 -16 -8 -15 33 -15 37 2 63 10 15 20 22 22 16 2 -6
-2 -18 -8 -26z m81 1 c-10 -17 -10 -29 -2 -44 13 -25 14 -32 3 -32 -5 0 -14
11 -20 25 -10 21 -9 32 4 56 8 17 18 28 21 25 4 -3 1 -17 -6 -30z m-43 -1 c-8
-19 -8 -31 0 -50 6 -14 8 -25 3 -25 -18 0 -31 49 -19 75 6 14 15 25 19 25 5 0
3 -11 -3 -25z m-588 -40 c0 -18 -5 -25 -20 -25 -15 0 -20 7 -20 25 0 18 5 25
20 25 15 0 20 -7 20 -25z m40 0 c0 -18 -4 -23 -15 -19 -25 10 -19 33 13 43 1
1 2 -10 2 -24z m1777 -37 c-2 -13 -4 -5 -4 17 -1 22 1 32 4 23 2 -10 2 -28 0
-40z m70 0 c-2 -13 -4 -5 -4 17 -1 22 1 32 4 23 2 -10 2 -28 0 -40z m190 0
c-2 -13 -4 -5 -4 17 -1 22 1 32 4 23 2 -10 2 -28 0 -40z m-1409 17 c-3 -3 -9
2 -12 12 -6 14 -5 15 5 6 7 -7 10 -15 7 -18z m422 5 c0 -11 -7 -20 -15 -20 -8
0 -15 9 -15 20 0 11 7 20 15 20 8 0 15 -9 15 -20z m50 0 c0 -11 -7 -20 -15
-20 -8 0 -15 9 -15 20 0 11 7 20 15 20 8 0 15 -9 15 -20z m727 -27 c-3 -10 -5
-2 -5 17 0 19 2 27 5 18 2 -10 2 -26 0 -35z m660 -5 c-2 -13 -4 -5 -4 17 -1
22 1 32 4 23 2 -10 2 -28 0 -40z m-500 5 c-3 -10 -5 -4 -5 12 0 17 2 24 5 18
2 -7 2 -21 0 -30z m70 0 c-3 -10 -5 -4 -5 12 0 17 2 24 5 18 2 -7 2 -21 0 -30z
m183 22 c0 -8 -4 -15 -10 -15 -5 0 -10 7 -10 15 0 8 5 15 10 15 6 0 10 -7 10
-15z m-323 -27 c-3 -7 -5 -2 -5 12 0 14 2 19 5 13 2 -7 2 -19 0 -25z m828 2
c-5 -8 -11 -8 -17 -2 -6 6 -7 16 -3 22 5 8 11 8 17 2 6 -6 7 -16 3 -22z m-848
-2 c-3 -8 -6 -5 -6 6 -1 11 2 17 5 13 3 -3 4 -12 1 -19z m-1897 -13 c0 -16 -6
-25 -15 -25 -9 0 -15 9 -15 25 0 16 6 25 15 25 9 0 15 -9 15 -25z m50 0 c0
-16 -6 -25 -15 -25 -9 0 -15 9 -15 25 0 16 6 25 15 25 9 0 15 -9 15 -25z m960
-15 c0 -13 -7 -20 -20 -20 -13 0 -20 7 -20 20 0 13 7 20 20 20 13 0 20 -7 20
-20z m40 0 c0 -11 -7 -20 -15 -20 -8 0 -15 9 -15 20 0 11 7 20 15 20 8 0 15
-9 15 -20z m1687 -57 c-2 -16 -4 -5 -4 22 0 28 2 40 4 28 2 -13 2 -35 0 -50z
m-451 50 c-11 -11 -35 -12 -42 -2 -3 5 7 9 22 9 15 0 24 -3 20 -7z m54 -3
c-19 -13 -30 -13 -30 0 0 6 10 10 23 10 18 0 19 -2 7 -10z m132 -12 c-5 -19
-7 -20 -10 -6 -3 15 -11 17 -48 13 -24 -2 -44 0 -44 5 0 6 24 10 54 10 51 0
54 -1 48 -22z m78 14 c0 -4 -11 -8 -25 -8 -14 0 -25 4 -25 8 0 4 11 8 25 8 14
0 25 -4 25 -8z m110 1 c0 -5 -23 -8 -50 -8 -28 -1 -50 3 -50 7 0 4 23 8 50 8
28 0 50 -3 50 -7z m-3170 -33 c0 -4 -7 -10 -15 -14 -11 -4 -15 2 -15 21 0 21
2 24 15 13 8 -7 15 -16 15 -20z m-150 5 c0 -1 -6 -8 -14 -15 -12 -9 -15 -8
-13 8 0 12 6 18 14 15 7 -3 13 -6 13 -8z m50 0 c0 -1 -7 -8 -15 -15 -13 -10
-15 -9 -15 8 0 15 5 20 15 16 8 -4 15 -7 15 -9z m47 -2 c2 -6 -3 -13 -12 -16
-10 -5 -15 0 -15 14 0 21 21 22 27 2z m2033 -18 c0 -27 -12 -32 -29 -12 -8 10
-7 17 1 25 19 19 28 14 28 -13z m50 0 c0 -22 -2 -24 -19 -13 -15 9 -17 15 -9
25 16 20 28 15 28 -12z m47 5 c-1 -11 -2 -20 -3 -20 -1 0 -10 3 -18 6 -13 5
-14 9 -5 20 16 20 28 17 26 -6z m49 0 c0 -11 -1 -20 -2 -20 -1 0 -10 3 -18 6
-13 5 -14 9 -5 20 16 20 25 17 25 -6z m44 -6 c0 -8 -5 -12 -10 -9 -6 4 -8 11
-5 16 9 14 15 11 15 -7z m50 0 c0 -8 -5 -12 -10 -9 -6 4 -8 11 -5 16 9 14 15
11 15 -7z m1340 -4 c0 -11 -7 -20 -15 -20 -15 0 -21 21 -8 33 12 13 23 7 23
-13z m-335 -19 c3 -5 1 -12 -5 -16 -5 -3 -10 1 -10 9 0 18 6 21 15 7z m55 -7
c0 -8 -5 -12 -10 -9 -6 4 -8 11 -5 16 9 14 15 11 15 -7z m55 7 c3 -5 1 -12 -5
-16 -5 -3 -10 1 -10 9 0 18 6 21 15 7z m55 -7 c0 -8 -5 -12 -10 -9 -6 4 -8 11
-5 16 9 14 15 11 15 -7z m55 7 c3 -5 1 -12 -5 -16 -5 -3 -10 1 -10 9 0 18 6
21 15 7z m-2776 -37 c-17 -21 -26 -17 -26 11 0 21 2 23 19 14 15 -8 17 -13 7
-25z m50 23 c8 -10 7 -17 -1 -25 -19 -19 -28 -14 -28 13 0 27 12 32 29 12z
m50 0 c8 -10 7 -17 -1 -25 -19 -19 -28 -14 -28 13 0 27 12 32 29 12z m50 0 c8
-10 7 -17 -1 -25 -19 -19 -28 -14 -28 13 0 27 12 32 29 12z m-254 -6 c3 -5 1
-12 -5 -16 -5 -3 -10 1 -10 9 0 18 6 21 15 7z m50 0 c3 -5 1 -12 -5 -16 -5 -3
-10 1 -10 9 0 18 6 21 15 7z m635 -21 c0 -11 -4 -20 -9 -20 -14 0 -23 18 -16
30 10 17 25 11 25 -10z m50 0 c0 -11 -4 -20 -9 -20 -14 0 -23 18 -16 30 10 17
25 11 25 -10z m50 0 c0 -11 -4 -20 -9 -20 -14 0 -23 18 -16 30 10 17 25 11 25
-10z m50 0 c0 -11 -4 -20 -9 -20 -14 0 -23 18 -16 30 10 17 25 11 25 -10z m48
-10 c-2 -6 -8 -6 -18 0 -13 9 -13 11 0 20 15 10 25 0 18 -20z m48 10 c0 -12
-4 -16 -9 -11 -5 5 -6 14 -3 20 10 15 12 14 12 -9z m74 10 c0 -5 -5 -10 -11
-10 -5 0 -7 5 -4 10 3 6 8 10 11 10 2 0 4 -4 4 -10z m1685 -20 c-5 -8 -11 -8
-17 -2 -6 6 -7 16 -3 22 5 8 11 8 17 2 6 -6 7 -16 3 -22z m-455 -35 c0 -42 -3
-55 -15 -55 -12 0 -15 13 -15 55 0 42 3 55 15 55 12 0 15 -13 15 -55z m230 35
c0 -5 -5 -12 -11 -16 -14 -8 -33 11 -25 25 7 11 36 4 36 -9z m502 -12 c-9 -9
-15 -9 -24 0 -10 10 -10 15 2 22 20 12 38 -6 22 -22z m-862 -38 c0 -29 -4 -40
-15 -40 -11 0 -15 11 -15 40 0 29 4 40 15 40 11 0 15 -11 15 -40z m88 -3 c3
-32 0 -37 -17 -37 -17 0 -21 6 -21 33 0 61 33 63 38 4z m-2978 13 c0 -13 -7
-20 -20 -20 -13 0 -20 7 -20 20 0 13 7 20 20 20 13 0 20 -7 20 -20z m60 0 c0
-13 -7 -20 -20 -20 -13 0 -20 7 -20 20 0 13 7 20 20 20 13 0 20 -7 20 -20z
m3220 0 c0 -11 -4 -20 -10 -20 -5 0 -10 9 -10 20 0 11 5 20 10 20 6 0 10 -9
10 -20z m50 0 c0 -11 -7 -20 -15 -20 -8 0 -15 9 -15 20 0 11 7 20 15 20 8 0
15 -9 15 -20z m-2807 3 c3 -5 -6 -9 -20 -10 -19 -1 -22 1 -12 8 17 11 26 11
32 2z m2327 -23 c0 -23 -4 -30 -20 -30 -16 0 -20 7 -20 30 0 23 4 30 20 30 16
0 20 -7 20 -30z m80 -10 c0 -11 -7 -20 -15 -20 -8 0 -15 9 -15 20 0 11 7 20
15 20 8 0 15 -9 15 -20z m-2458 -4 c19 12 58 11 69 -2 7 -8 5 -11 -7 -10 -9 0
-19 -5 -22 -13 -3 -10 1 -12 17 -8 11 3 24 1 27 -5 3 -5 12 -7 20 -4 20 8 44
-4 44 -20 0 -15 1 -15 -50 -19 -19 -1 -29 0 -22 2 17 7 15 33 -3 33 -8 0 -15
-6 -15 -14 0 -34 -54 -28 -64 7 -4 17 -8 19 -17 10 -9 -9 -9 -16 2 -29 8 -10
9 -15 2 -11 -6 4 -19 21 -27 39 -12 23 -13 34 -5 45 9 10 15 10 25 2 7 -6 19
-7 26 -3z m1048 -6 c0 -5 -4 -10 -10 -10 -5 0 -10 5 -10 10 0 6 5 10 10 10 6
0 10 -4 10 -10z m40 0 c0 -5 -4 -10 -10 -10 -5 0 -10 5 -10 10 0 6 5 10 10 10
6 0 10 -4 10 -10z m40 0 c0 -5 -4 -10 -10 -10 -5 0 -10 5 -10 10 0 6 5 10 10
10 6 0 10 -4 10 -10z m40 0 c0 -5 -7 -10 -15 -10 -8 0 -15 5 -15 10 0 6 7 10
15 10 8 0 15 -4 15 -10z m30 0 c0 -5 -4 -10 -10 -10 -5 0 -10 5 -10 10 0 6 5
10 10 10 6 0 10 -4 10 -10z m40 0 c0 -5 -4 -10 -10 -10 -5 0 -10 5 -10 10 0 6
5 10 10 10 6 0 10 -4 10 -10z m40 0 c0 -5 -4 -10 -10 -10 -5 0 -10 5 -10 10 0
6 5 10 10 10 6 0 10 -4 10 -10z m40 0 c0 -5 -4 -10 -10 -10 -5 0 -10 5 -10 10
0 6 5 10 10 10 6 0 10 -4 10 -10z m40 0 c0 -5 -4 -10 -10 -10 -5 0 -10 5 -10
10 0 6 5 10 10 10 6 0 10 -4 10 -10z m40 0 c0 -5 -4 -10 -10 -10 -5 0 -10 5
-10 10 0 6 5 10 10 10 6 0 10 -4 10 -10z m40 0 c0 -5 -7 -10 -15 -10 -8 0 -15
5 -15 10 0 6 7 10 15 10 8 0 15 -4 15 -10z m30 0 c0 -5 -4 -10 -10 -10 -5 0
-10 5 -10 10 0 6 5 10 10 10 6 0 10 -4 10 -10z m40 0 c0 -5 -4 -10 -10 -10 -5
0 -10 5 -10 10 0 6 5 10 10 10 6 0 10 -4 10 -10z m40 0 c0 -5 -4 -10 -10 -10
-5 0 -10 5 -10 10 0 6 5 10 10 10 6 0 10 -4 10 -10z m40 0 c0 -5 -4 -10 -10
-10 -5 0 -10 5 -10 10 0 6 5 10 10 10 6 0 10 -4 10 -10z m40 0 c0 -5 -4 -10
-10 -10 -5 0 -10 5 -10 10 0 6 5 10 10 10 6 0 10 -4 10 -10z m40 0 c0 -5 -7
-10 -15 -10 -8 0 -15 5 -15 10 0 6 7 10 15 10 8 0 15 -4 15 -10z m35 0 c3 -5
-1 -10 -9 -10 -9 0 -16 5 -16 10 0 6 4 10 9 10 6 0 13 -4 16 -10z m35 0 c0 -5
-4 -10 -10 -10 -5 0 -10 5 -10 10 0 6 5 10 10 10 6 0 10 -4 10 -10z m40 0 c0
-5 -4 -10 -10 -10 -5 0 -10 5 -10 10 0 6 5 10 10 10 6 0 10 -4 10 -10z m1000
-10 c0 -11 -7 -20 -15 -20 -8 0 -15 9 -15 20 0 11 7 20 15 20 8 0 15 -9 15
-20z m30 0 c0 -11 -4 -20 -10 -20 -5 0 -10 9 -10 20 0 11 5 20 10 20 6 0 10
-9 10 -20z m-3220 -10 c0 -13 -7 -20 -20 -20 -13 0 -20 7 -20 20 0 13 7 20 20
20 13 0 20 -7 20 -20z m2461 -28 c-7 -13 -7 -22 1 -30 5 -5 8 -16 6 -23 -3 -9
-11 -4 -23 14 -17 26 -17 28 0 47 22 24 31 19 16 -8z m35 2 c-4 -15 -2 -32 5
-40 7 -8 7 -14 1 -14 -5 0 -15 7 -22 15 -11 13 -11 20 0 40 17 32 24 32 16 -1z
m35 -2 c-7 -13 -7 -22 1 -30 7 -7 9 -15 5 -19 -4 -3 -13 2 -21 12 -12 16 -12
22 1 42 18 28 29 24 14 -5z m-1885 1 c-5 -16 -5 -16 6 -2 17 21 44 20 44 -2 0
-10 -4 -15 -8 -13 -4 3 -8 0 -8 -7 0 -8 -4 -8 -15 1 -8 7 -15 9 -15 4 0 -4 -5
-3 -11 3 -6 6 -8 16 -5 22 11 17 19 13 12 -6z m71 -15 c-3 -7 -5 -2 -5 12 0
14 2 19 5 13 2 -7 2 -19 0 -25z m29 12 c0 -12 -4 -16 -9 -11 -5 5 -6 14 -3 20
10 15 12 14 12 -9z m1820 -14 c0 -29 -2 -32 -12 -18 -8 11 -9 23 -3 34 13 25
15 23 15 -16z m35 10 c-8 -10 -9 -16 -1 -21 5 -3 10 -11 10 -17 0 -7 -6 -6
-15 2 -18 15 -19 32 -3 48 16 16 24 6 9 -12z m335 13 c10 -17 -13 -36 -27 -22
-12 12 -4 33 11 33 5 0 12 -5 16 -11z m357 -4 c7 -18 -6 -27 -27 -19 -13 5
-14 9 -5 20 15 18 25 18 32 -1z m274 -5 c-1 -11 -5 -20 -9 -20 -11 0 -20 19
-13 30 11 17 24 11 22 -10z m-2563 -27 c-1 -15 -3 -30 -3 -32 -1 -2 -10 4 -21
14 -19 17 -19 19 -4 36 21 24 30 18 28 -18z m66 2 l0 -36 -23 18 -24 17 21 18
c27 23 26 23 26 -17z m70 0 l0 -36 -24 18 -25 18 22 17 c28 23 27 24 27 -17z
m1493 20 c-3 -9 -8 -14 -10 -11 -3 3 -2 9 2 15 9 16 15 13 8 -4z m974 0 c0 -8
-4 -15 -8 -15 -11 0 -20 16 -12 24 11 11 20 7 20 -9z m43 0 c0 -8 -4 -15 -9
-15 -13 0 -22 16 -14 24 11 11 23 6 23 -9z m40 0 c0 -8 -4 -15 -9 -15 -13 0
-22 16 -14 24 11 11 23 6 23 -9z m37 0 c0 -8 -4 -12 -9 -9 -4 3 -8 9 -8 15 0
5 4 9 8 9 5 0 9 -7 9 -15z m-2517 -20 c0 -28 -3 -30 -32 -14 -21 11 -21 12 -3
25 27 20 35 17 35 -11z m-2170 -13 c0 -4 -6 -14 -12 -20 -10 -10 -10 -17 0
-33 19 -30 6 -36 -17 -8 -17 22 -18 25 -2 46 16 23 31 30 31 15z m28 -21 c-10
-16 -10 -23 0 -33 20 -20 13 -32 -8 -13 -24 22 -25 33 -3 57 21 23 28 16 11
-11z m40 0 c-10 -16 -10 -23 0 -33 20 -20 13 -32 -8 -13 -24 22 -25 33 -3 57
21 23 28 16 11 -11z m4134 -3 c-15 -15 -26 -4 -18 18 5 13 9 15 18 6 9 -9 9
-15 0 -24z m-4094 3 c-9 -15 -9 -23 1 -35 8 -10 9 -16 3 -16 -18 0 -31 33 -21
52 5 10 14 18 19 18 6 0 5 -8 -2 -19z m40 0 c-9 -15 -9 -23 1 -35 8 -9 9 -16
3 -16 -21 0 -34 28 -22 49 6 12 15 21 20 21 6 0 5 -8 -2 -19z m1098 8 c10 -17
-13 -36 -27 -22 -12 12 -4 33 11 33 5 0 12 -5 16 -11z m530 0 c10 -17 -13 -36
-27 -22 -12 12 -4 33 11 33 5 0 12 -5 16 -11z m2154 -9 c0 -13 -5 -18 -15 -14
-16 7 -19 17 -8 27 12 13 23 7 23 -13z m40 0 c0 -13 -5 -18 -15 -14 -16 7 -19
17 -8 27 12 13 23 7 23 -13z m40 -1 c0 -18 -2 -19 -15 -9 -15 12 -12 30 6 30
5 0 9 -10 9 -21z m40 0 c0 -18 -2 -20 -15 -9 -13 11 -13 15 -3 21 18 12 18 12
18 -12z m36 -6 c-10 -10 -19 5 -10 18 6 11 8 11 12 0 2 -7 1 -15 -2 -18z m684
17 c0 -5 -9 -10 -20 -10 -11 0 -20 5 -20 10 0 6 9 10 20 10 11 0 20 -4 20 -10z
m-4588 -12 c-9 -9 -9 -15 1 -27 11 -14 10 -14 -6 -2 -13 10 -15 17 -6 27 6 8
14 14 17 14 3 0 1 -5 -6 -12z m3948 2 c0 -5 -2 -10 -4 -10 -3 0 -8 5 -11 10
-3 6 -1 10 4 10 6 0 11 -4 11 -10z m-2450 -40 c0 -13 -7 -20 -20 -20 -13 0
-20 7 -20 20 0 13 7 20 20 20 13 0 20 -7 20 -20z m60 0 c0 -15 -7 -20 -25 -20
-18 0 -25 5 -25 20 0 15 7 20 25 20 18 0 25 -5 25 -20z m595 -40 c11 -17 -5
-32 -21 -19 -7 6 -11 15 -8 20 7 12 21 11 29 -1z m1731 -1 c10 -17 -13 -36
-27 -22 -12 12 -4 33 11 33 5 0 12 -5 16 -11z m354 -9 c0 -11 -4 -20 -9 -20
-14 0 -23 18 -16 30 10 17 25 11 25 -10z m-2680 -10 c0 -13 -7 -20 -20 -20
-13 0 -20 7 -20 20 0 13 7 20 20 20 13 0 20 -7 20 -20z m1525 0 c0 -7 -6 -15
-12 -17 -8 -3 -13 4 -13 17 0 13 5 20 13 18 6 -3 12 -11 12 -18z m1318 -5 c-7
-21 -13 -19 -13 6 0 11 4 18 10 14 5 -3 7 -12 3 -20z m54 -7 c-3 -7 -5 -2 -5
12 0 14 2 19 5 13 2 -7 2 -19 0 -25z m176 7 c-7 -21 -13 -19 -13 6 0 11 4 18
10 14 5 -3 7 -12 3 -20z m-283 5 c0 -5 -4 -10 -10 -10 -5 0 -10 5 -10 10 0 6
5 10 10 10 6 0 10 -4 10 -10z m170 0 c0 -5 -2 -10 -4 -10 -3 0 -8 5 -11 10 -3
6 -1 10 4 10 6 0 11 -4 11 -10z m60 -5 c0 -8 -4 -15 -10 -15 -5 0 -10 7 -10
15 0 8 5 15 10 15 6 0 10 -7 10 -15z m-2940 -15 c0 -11 -4 -20 -8 -20 -4 0 -8
9 -9 20 -1 11 2 20 8 20 5 0 9 -9 9 -20z m17 -12 c-3 -7 -5 -2 -5 12 0 14 2
19 5 13 2 -7 2 -19 0 -25z m20 0 c-3 -7 -5 -2 -5 12 0 14 2 19 5 13 2 -7 2
-19 0 -25z m30 0 c-3 -7 -5 -2 -5 12 0 14 2 19 5 13 2 -7 2 -19 0 -25z m20 0
c-3 -7 -5 -2 -5 12 0 14 2 19 5 13 2 -7 2 -19 0 -25z m20 0 c-3 -7 -5 -2 -5
12 0 14 2 19 5 13 2 -7 2 -19 0 -25z m30 0 c-3 -7 -5 -2 -5 12 0 14 2 19 5 13
2 -7 2 -19 0 -25z m20 0 c-3 -7 -5 -2 -5 12 0 14 2 19 5 13 2 -7 2 -19 0 -25z
m53 12 c0 -13 -7 -20 -20 -20 -13 0 -20 7 -20 20 0 13 7 20 20 20 13 0 20 -7
20 -20z m17 -12 c-3 -7 -5 -2 -5 12 0 14 2 19 5 13 2 -7 2 -19 0 -25z m20 0
c-3 -7 -5 -2 -5 12 0 14 2 19 5 13 2 -7 2 -19 0 -25z m30 0 c-3 -7 -5 -2 -5
12 0 14 2 19 5 13 2 -7 2 -19 0 -25z m20 0 c-3 -7 -5 -2 -5 12 0 14 2 19 5 13
2 -7 2 -19 0 -25z m20 0 c-3 -7 -5 -2 -5 12 0 14 2 19 5 13 2 -7 2 -19 0 -25z
m30 0 c-3 -7 -5 -2 -5 12 0 14 2 19 5 13 2 -7 2 -19 0 -25z m20 0 c-3 -7 -5
-2 -5 12 0 14 2 19 5 13 2 -7 2 -19 0 -25z m20 0 c-3 -7 -5 -2 -5 12 0 14 2
19 5 13 2 -7 2 -19 0 -25z m30 0 c-3 -7 -5 -2 -5 12 0 14 2 19 5 13 2 -7 2
-19 0 -25z m20 0 c-3 -7 -5 -2 -5 12 0 14 2 19 5 13 2 -7 2 -19 0 -25z m-981
11 c10 -17 -13 -36 -27 -22 -12 12 -4 33 11 33 5 0 12 -5 16 -11z m380 0 c10
-17 -13 -36 -27 -22 -12 12 -4 33 11 33 5 0 12 -5 16 -11z m-1626 -23 c0 -3
-4 -8 -10 -11 -5 -3 -10 -1 -10 4 0 6 5 11 10 11 6 0 10 -2 10 -4z m3870 -16
c0 -11 -4 -20 -10 -20 -5 0 -10 9 -10 20 0 11 5 20 10 20 6 0 10 -9 10 -20z
m46 0 c0 -11 -4 -20 -8 -20 -4 0 -8 9 -8 20 0 11 4 20 8 20 4 0 8 -9 8 -20z
m40 0 c0 -11 -4 -20 -8 -20 -4 0 -8 9 -8 20 0 11 4 20 8 20 4 0 8 -9 8 -20z
m34 0 c0 -11 -4 -20 -10 -20 -5 0 -10 9 -10 20 0 11 5 20 10 20 6 0 10 -9 10
-20z m40 0 c0 -11 -4 -20 -8 -20 -4 0 -8 9 -8 20 0 11 4 20 8 20 4 0 8 -9 8
-20z m50 10 c-13 -9 -13 -11 0 -20 13 -8 12 -10 -2 -10 -11 0 -18 8 -18 20 0
12 7 20 18 20 14 0 15 -2 2 -10z m237 -27 c-3 -3 -11 -2 -17 2 -9 6 -9 10 1
16 14 8 27 -7 16 -18z m29 0 c-10 -10 -19 5 -10 18 6 11 8 11 12 0 2 -7 1 -15
-2 -18z m-4246 7 c0 -5 -5 -10 -11 -10 -5 0 -7 5 -4 10 3 6 8 10 11 10 2 0 4
-4 4 -10z m4090 -5 c0 -8 -6 -15 -13 -15 -8 0 -14 7 -14 15 0 8 6 15 14 15 7
0 13 -7 13 -15z m40 -6 c0 -24 -23 -21 -28 4 -2 10 3 17 12 17 10 0 16 -9 16
-21z m150 11 c0 -5 -4 -10 -10 -10 -5 0 -10 5 -10 10 0 6 5 10 10 10 6 0 10
-4 10 -10z m-4870 -10 c0 -5 -2 -10 -4 -10 -3 0 -8 5 -11 10 -3 6 -1 10 4 10
6 0 11 -4 11 -10z m240 0 c0 -5 -2 -10 -4 -10 -3 0 -8 5 -11 10 -3 6 -1 10 4
10 6 0 11 -4 11 -10z m90 6 c0 -2 -9 -6 -20 -9 -11 -3 -20 -1 -20 4 0 5 9 9
20 9 11 0 20 -2 20 -4z m1477 -88 c-2 -13 -4 -3 -4 22 0 25 2 35 4 23 2 -13 2
-33 0 -45z m170 0 c-2 -13 -4 -3 -4 22 0 25 2 35 4 23 2 -13 2 -33 0 -45z m30
0 c-2 -13 -4 -3 -4 22 0 25 2 35 4 23 2 -13 2 -33 0 -45z m-340 0 c-2 -13 -4
-5 -4 17 -1 22 1 32 4 23 2 -10 2 -28 0 -40z m110 0 c-2 -13 -4 -5 -4 17 -1
22 1 32 4 23 2 -10 2 -28 0 -40z m370 0 c-2 -13 -4 -5 -4 17 -1 22 1 32 4 23
2 -10 2 -28 0 -40z m2903 32 c0 -11 -7 -20 -15 -20 -15 0 -21 21 -8 33 12 13
23 7 23 -13z m-3353 -37 c-3 -10 -5 -2 -5 17 0 19 2 27 5 18 2 -10 2 -26 0
-35z m250 0 c-3 -10 -5 -2 -5 17 0 19 2 27 5 18 2 -10 2 -26 0 -35z m110 0
c-3 -10 -5 -2 -5 17 0 19 2 27 5 18 2 -10 2 -26 0 -35z m2821 27 c-10 -16 -10
-24 1 -42 l13 -23 -23 22 c-22 22 -22 23 -4 43 23 26 29 26 13 0z m43 3 c13
-16 12 -17 -3 -4 -17 13 -22 21 -14 21 2 0 10 -8 17 -17z m89 2 c0 -8 -7 -15
-15 -15 -8 0 -15 7 -15 15 0 8 7 15 15 15 8 0 15 -7 15 -15z m-4360 -5 c0 -5
-2 -10 -4 -10 -3 0 -8 5 -11 10 -3 6 -1 10 4 10 6 0 11 -4 11 -10z m967 -32
c-3 -7 -5 -2 -5 12 0 14 2 19 5 13 2 -7 2 -19 0 -25z m250 0 c-3 -7 -5 -2 -5
12 0 14 2 19 5 13 2 -7 2 -19 0 -25z m250 0 c-3 -7 -5 -2 -5 12 0 14 2 19 5
13 2 -7 2 -19 0 -25z m1970 17 c12 -3 27 -14 33 -26 8 -14 11 -164 11 -482
l-1 -462 -26 -22 c-25 -23 -28 -23 -336 -23 l-310 0 7 -37 c3 -21 11 -59 17
-85 l10 -48 104 0 104 0 0 -35 0 -34 -102 -3 c-57 -2 -228 -2 -380 0 l-278 3
0 34 0 35 104 0 103 0 12 63 c7 34 15 72 18 84 l5 23 -316 0 -317 0 -24 25
-25 24 0 464 c0 384 2 466 14 483 14 18 36 19 693 24 686 5 840 4 880 -5z
m220 -17 c-3 -7 -5 -2 -5 12 0 14 2 19 5 13 2 -7 2 -19 0 -25z m35 0 c-9 -9
-12 -7 -12 12 0 19 3 21 12 12 9 -9 9 -15 0 -24z m273 3 c0 -22 -19 -23 -32
-2 -10 16 -8 18 10 17 12 -1 22 -7 22 -15z m-2715 -1 c0 -5 -5 -10 -11 -10 -5
0 -7 5 -4 10 3 6 8 10 11 10 2 0 4 -4 4 -10z m3016 -18 c-17 -16 -18 -16 -5 5
7 12 15 20 18 17 3 -2 -3 -12 -13 -22z m-4876 8 c0 -5 -5 -10 -11 -10 -5 0 -7
5 -4 10 3 6 8 10 11 10 2 0 4 -4 4 -10z m370 6 c0 -3 -4 -8 -10 -11 -5 -3 -10
-1 -10 4 0 6 5 11 10 11 6 0 10 -2 10 -4z m1068 -16 c-7 -10 -14 -17 -17 -15
-4 4 18 35 25 35 2 0 -1 -9 -8 -20z m73 -4 c12 -26 -2 -66 -23 -66 -7 0 -5 7
4 18 18 19 16 51 -4 63 -10 7 -10 9 0 9 7 0 17 -11 23 -24z m3499 8 c0 -17
-22 -14 -28 4 -2 7 3 12 12 12 9 0 16 -7 16 -16z m-2680 -28 c0 -13 -7 -27
-16 -30 -14 -5 -15 -4 -4 9 7 8 10 22 6 30 -3 8 -1 15 4 15 6 0 10 -11 10 -24z
m2082 -9 c-7 -8 -7 -18 -2 -27 17 -27 10 -35 -10 -12 -18 22 -19 25 -3 49 10
14 19 21 21 14 2 -6 -1 -17 -6 -24z m228 11 c0 -16 -3 -19 -11 -11 -6 6 -8 16
-5 22 11 17 16 13 16 -11z m63 -11 c-3 -5 -10 -4 -15 1 -6 6 -7 16 -3 22 6 9
9 9 16 -1 4 -7 5 -17 2 -22z m-3229 2 c-3 -5 -10 -7 -15 -3 -5 3 -7 10 -3 15
3 5 10 7 15 3 5 -3 7 -10 3 -15z m2976 1 c-8 -14 -8 -26 0 -40 6 -11 7 -20 3
-20 -5 0 -14 9 -21 20 -10 16 -10 24 0 40 7 11 16 20 21 20 4 0 3 -9 -3 -20z
m30 -5 c-10 -12 -10 -18 0 -30 7 -9 10 -18 7 -21 -3 -3 -10 4 -17 15 -8 15 -8
27 0 42 7 11 14 18 17 15 3 -3 0 -12 -7 -21z m40 5 c-8 -14 -7 -26 1 -42 l11
-23 -22 21 c-19 19 -20 24 -9 43 17 27 33 28 19 1z m-3066 -39 c-5 -6 -34 20
-34 30 0 5 8 1 18 -8 10 -10 17 -20 16 -22z m-1247 -33 c-2 -13 -4 -3 -4 22 0
25 2 35 4 23 2 -13 2 -33 0 -45z m150 0 c-2 -13 -4 -3 -4 22 0 25 2 35 4 23 2
-13 2 -33 0 -45z m133 42 c0 -11 -7 -20 -15 -20 -8 0 -15 9 -15 20 0 11 7 20
15 20 8 0 15 -9 15 -20z m-230 -44 c0 -35 -4 -45 -20 -49 -11 -3 -20 -1 -20 4
0 5 7 9 15 9 11 0 15 11 15 40 0 22 2 40 5 40 3 0 5 -20 5 -44z m649 -12 c-9
-11 -9 -18 -1 -26 7 -7 12 -21 12 -32 0 -19 -3 -17 -25 9 -30 37 -30 36 -3 71
19 24 23 25 26 11 2 -10 -2 -25 -9 -33z m50 0 c-9 -11 -9 -18 -1 -26 7 -7 12
-21 12 -32 0 -16 -5 -14 -25 14 l-24 33 22 31 c18 25 22 28 25 13 2 -10 -2
-25 -9 -33z m50 0 c-9 -11 -9 -18 -1 -26 7 -7 12 -19 12 -27 -1 -11 -9 -6 -24
13 l-24 29 21 30 c17 22 23 25 25 12 2 -9 -2 -23 -9 -31z m51 5 c-9 -15 -9
-24 -1 -32 6 -6 11 -18 11 -26 0 -11 -6 -9 -20 9 -24 31 -24 35 -2 65 20 27
29 16 12 -16z m49 -5 c-9 -11 -9 -18 -1 -26 7 -7 12 -19 12 -27 0 -11 -6 -9
-20 9 -24 31 -24 35 -2 65 12 17 18 19 20 9 2 -8 -2 -22 -9 -30z m-927 -7 c1
-20 -1 -39 -5 -43 -4 -4 -7 14 -7 41 0 56 8 57 12 2z m150 0 c1 -20 -1 -39 -5
-43 -4 -4 -7 14 -7 41 0 56 8 57 12 2z m826 16 c-15 -14 -15 -18 -1 -42 l15
-26 -20 24 c-19 23 -19 26 -4 47 10 12 19 20 21 18 3 -3 -2 -12 -11 -21z
m-862 -33 c8 0 14 -4 14 -10 0 -5 -6 -7 -14 -4 -9 4 -16 -3 -19 -18 -2 -13 -4
0 -4 27 0 28 2 40 4 28 2 -13 11 -23 19 -23z m113 -7 c-1 -27 -4 -38 -6 -25
-2 12 -12 23 -21 23 -15 1 -15 2 1 6 9 2 17 13 17 24 0 10 2 19 5 19 3 0 4
-21 4 -47z m1966 29 c0 -18 -20 -15 -23 4 -3 10 1 15 10 12 7 -3 13 -10 13
-16z m2804 4 c9 -11 8 -15 -5 -20 -8 -3 -17 -6 -18 -6 -1 0 -2 9 -2 20 0 23 9
26 25 6z m49 1 c8 -9 6 -16 -7 -24 -16 -10 -18 -8 -18 13 0 27 9 31 25 11z
m-153 -6 c3 -5 1 -12 -5 -16 -5 -3 -10 1 -10 9 0 18 6 21 15 7z m55 0 c0 -6
-4 -13 -10 -16 -5 -3 -10 1 -10 9 0 9 5 16 10 16 6 0 10 -4 10 -9z m-4671 -48
c-2 -46 -2 -47 -8 -13 -4 19 -5 41 -3 48 8 24 12 11 11 -35z m4116 29 c0 -18
-20 -15 -23 4 -3 10 1 15 10 12 7 -3 13 -10 13 -16z m-4675 -12 c0 -5 -4 -10
-10 -10 -5 0 -10 5 -10 10 0 6 5 10 10 10 6 0 10 -4 10 -10z m110 6 c0 -3 -4
-8 -10 -11 -5 -3 -10 -1 -10 4 0 6 5 11 10 11 6 0 10 -2 10 -4z m17 -63 c-2
-16 -4 -5 -4 22 0 28 2 40 4 28 2 -13 2 -35 0 -50z m33 57 c0 -5 -4 -10 -10
-10 -5 0 -10 5 -10 10 0 6 5 10 10 10 6 0 10 -4 10 -10z m50 0 c0 -5 -4 -10
-10 -10 -5 0 -10 5 -10 10 0 6 5 10 10 10 6 0 10 -4 10 -10z m17 -27 c-3 -10
-5 -4 -5 12 0 17 2 24 5 18 2 -7 2 -21 0 -30z m33 27 c0 -5 -2 -10 -4 -10 -3
0 -8 5 -11 10 -3 6 -1 10 4 10 6 0 11 -4 11 -10z m330 0 c0 -5 -4 -10 -10 -10
-5 0 -10 5 -10 10 0 6 5 10 10 10 6 0 10 -4 10 -10z m-380 -35 c0 -8 -4 -15
-10 -15 -5 0 -7 7 -4 15 4 8 8 15 10 15 2 0 4 -7 4 -15z m4060 -5 c0 -5 -7
-10 -15 -10 -8 0 -15 5 -15 10 0 6 7 10 15 10 8 0 15 -4 15 -10z m-2870 -22
c0 -10 -7 -18 -15 -18 -8 0 -15 8 -15 18 0 10 7 19 15 19 8 0 15 -9 15 -19z
m552 -39 c3 -40 5 -42 48 -55 45 -14 45 -14 71 18 l27 32 41 -29 c54 -37 54
-38 31 -68 -25 -32 -25 -33 7 -80 27 -39 30 -40 94 -21 12 3 20 -7 30 -43 19
-64 19 -65 -18 -77 -18 -6 -33 -14 -33 -18 -2 -106 -2 -105 35 -112 19 -4 35
-9 35 -12 0 -3 -7 -31 -16 -61 -12 -41 -20 -53 -31 -49 -51 20 -58 18 -90 -26
-31 -44 -31 -44 -12 -68 26 -34 24 -41 -19 -70 -51 -35 -49 -35 -75 -5 l-23
27 -52 -17 c-51 -17 -52 -18 -52 -57 l0 -39 -57 3 -57 3 -1 34 c0 33 -3 36
-50 53 l-50 18 -25 -29 -25 -30 -48 35 -47 34 21 29 21 28 -33 46 c-28 41 -34
44 -56 36 -41 -15 -49 -11 -62 32 -7 23 -15 47 -17 53 -3 8 8 17 28 22 33 10
33 11 33 69 0 58 0 59 -33 67 -22 6 -32 14 -29 22 3 8 11 32 18 55 13 43 21
47 62 32 22 -8 29 -5 56 29 36 45 37 47 11 80 -11 14 -20 28 -20 31 0 3 21 21
46 39 37 26 48 30 55 19 28 -50 32 -52 85 -36 48 14 49 15 52 55 l3 42 59 0
59 0 3 -41z m458 21 c0 -5 -7 -10 -15 -10 -8 0 -15 5 -15 10 0 6 7 10 15 10 8
0 15 -4 15 -10z m1857 4 c-3 -3 -12 -4 -19 -1 -8 3 -5 6 6 6 11 1 17 -2 13 -5z
m-1747 -36 c0 -16 -3 -19 -11 -11 -6 6 -8 16 -5 22 11 17 16 13 16 -11z m-110
2 c0 -5 -7 -10 -15 -10 -8 0 -15 5 -15 10 0 6 7 10 15 10 8 0 15 -4 15 -10z
m1857 4 c-3 -3 -12 -4 -19 -1 -8 3 -5 6 6 6 11 1 17 -2 13 -5z m547 -30 c5
-12 10 -13 19 -6 16 13 39 0 35 -19 -2 -8 3 -13 11 -11 19 4 32 -19 19 -35 -7
-9 -6 -14 6 -19 20 -8 21 -33 1 -40 -12 -5 -13 -10 -4 -20 14 -17 3 -34 -22
-34 -13 0 -19 -6 -17 -17 2 -14 -3 -18 -22 -17 -14 1 -28 -4 -32 -10 -5 -8
-13 -8 -27 1 -11 7 -27 10 -36 7 -11 -5 -18 0 -22 14 -2 11 -14 23 -25 25 -14
4 -19 11 -14 22 3 9 0 25 -7 36 -9 16 -9 21 1 28 7 4 11 18 10 32 -2 18 2 24
15 23 10 -1 17 5 17 17 0 23 17 34 34 20 10 -9 15 -8 20 4 7 20 32 19 40 -1z
m-2404 -4 c0 -5 -7 -10 -15 -10 -8 0 -15 5 -15 10 0 6 7 10 15 10 8 0 15 -4
15 -10z m1857 4 c-3 -3 -12 -4 -19 -1 -8 3 -5 6 6 6 11 1 17 -2 13 -5z m-3215
-34 c46 -13 92 -50 107 -88 8 -18 27 -35 51 -46 52 -23 75 -59 75 -121 0 -32
8 -60 20 -80 27 -39 26 -105 -1 -142 -35 -48 -79 -64 -169 -61 -45 2 -80 7
-80 13 0 6 41 12 93 15 91 5 95 6 123 38 37 42 39 89 4 130 -21 25 -24 37 -19
73 7 56 -21 105 -66 116 -21 6 -38 20 -53 48 -58 103 -175 114 -251 25 -15
-18 -26 -44 -26 -60 0 -39 -10 -42 -58 -19 -36 18 -46 19 -77 9 -47 -15 -70
-52 -68 -107 l1 -43 -38 0 c-78 0 -131 -81 -96 -148 28 -55 48 -62 178 -62 98
0 118 -3 118 -15 0 -12 -19 -15 -110 -15 -127 0 -166 12 -200 60 -53 74 -14
178 76 202 39 11 44 15 44 41 0 38 26 80 60 101 31 18 92 21 120 6 16 -8 20
-5 29 23 14 41 54 81 101 101 42 18 63 19 112 6z m1353 0 c3 -5 -1 -10 -9 -10
-9 0 -16 5 -16 10 0 6 4 10 9 10 6 0 13 -4 16 -10z m1860 0 c-3 -5 -10 -10
-16 -10 -5 0 -9 5 -9 10 0 6 7 10 16 10 8 0 12 -4 9 -10z m5 -30 c0 -5 -7 -10
-15 -10 -8 0 -15 5 -15 10 0 6 7 10 15 10 8 0 15 -4 15 -10z m-3654 -39 c-13
-20 -26 -11 -26 16 0 25 1 26 16 11 9 -9 13 -21 10 -27z m52 2 c-16 -20 -28
-15 -28 12 0 22 2 24 19 13 15 -9 17 -15 9 -25z m1739 31 c-3 -3 -12 -4 -19
-1 -8 3 -5 6 6 6 11 1 17 -2 13 -5z m2743 -35 c53 -33 70 -54 70 -90 0 -12
-59 -116 -131 -231 l-131 -209 -93 -46 c-54 -27 -99 -44 -109 -40 -13 5 -16
23 -16 108 l0 101 131 209 c83 133 140 215 157 224 34 18 59 13 122 -26z
m-4685 11 c0 -7 -5 -15 -10 -17 -6 -2 -11 6 -11 17 0 11 5 19 11 17 5 -2 10
-10 10 -17z m50 0 c0 -7 -6 -15 -12 -17 -8 -3 -13 4 -13 17 0 13 5 20 13 18 6
-3 12 -11 12 -18z m50 0 c0 -7 -6 -15 -12 -17 -8 -3 -13 4 -13 17 0 13 5 20
13 18 6 -3 12 -11 12 -18z m-145 0 c0 -5 -4 -10 -10 -10 -5 0 -10 5 -10 10 0
6 5 10 10 10 6 0 10 -4 10 -10z m3850 0 c0 -5 -7 -10 -15 -10 -8 0 -15 5 -15
10 0 6 7 10 15 10 8 0 15 -4 15 -10z m-1863 -6 c-3 -3 -12 -4 -19 -1 -8 3 -5
6 6 6 11 1 17 -2 13 -5z m1858 -24 c3 -5 -1 -10 -10 -10 -9 0 -13 5 -10 10 3
6 8 10 10 10 2 0 7 -4 10 -10z m-1858 -6 c-3 -3 -12 -4 -19 -1 -8 3 -5 6 6 6
11 1 17 -2 13 -5z m-2 -34 c-3 -5 -10 -10 -16 -10 -5 0 -9 5 -9 10 0 6 7 10
16 10 8 0 12 -4 9 -10z m1862 4 c-3 -3 -12 -4 -19 -1 -8 3 -5 6 6 6 11 1 17
-2 13 -5z m343 -29 c0 -23 36 -37 50 -20 11 14 15 14 31 -1 12 -11 16 -21 10
-28 -13 -15 13 -48 31 -41 10 4 17 -1 21 -15 3 -13 0 -23 -9 -27 -20 -7 -18
-53 2 -53 11 0 14 -5 10 -16 -3 -9 -6 -20 -6 -25 0 -6 -8 -8 -18 -5 -20 7 -48
-29 -31 -39 7 -5 6 -11 -2 -21 -13 -16 -39 -19 -39 -4 0 6 -9 6 -22 1 -13 -5
-23 -15 -23 -22 0 -23 -42 -23 -48 0 -5 22 -36 28 -53 11 -7 -7 -16 -4 -28 9
-12 13 -14 21 -6 26 15 9 -17 45 -35 39 -7 -3 -15 4 -18 16 -3 13 0 23 9 27
20 7 18 53 -2 53 -11 0 -14 5 -10 16 3 9 6 20 6 25 0 6 8 8 18 5 20 -7 48 29
31 39 -7 5 -6 11 2 21 14 17 36 18 41 3 3 -9 10 -9 26 0 12 6 21 15 21 19 -3
17 2 22 21 22 11 0 20 -7 20 -15z m-2200 -5 c0 -5 -7 -10 -15 -10 -8 0 -15 5
-15 10 0 6 7 10 15 10 8 0 15 -4 15 -10z m1857 4 c-3 -3 -12 -4 -19 -1 -8 3
-5 6 6 6 11 1 17 -2 13 -5z m-1857 -34 c0 -5 -7 -10 -15 -10 -8 0 -15 5 -15
10 0 6 7 10 15 10 8 0 15 -4 15 -10z m1857 4 c-3 -3 -12 -4 -19 -1 -8 3 -5 6
6 6 11 1 17 -2 13 -5z m-1862 -34 c3 -5 -1 -10 -9 -10 -9 0 -16 5 -16 10 0 6
4 10 9 10 6 0 13 -4 16 -10z m1860 0 c-3 -5 -10 -10 -16 -10 -5 0 -9 5 -9 10
0 6 7 10 16 10 8 0 12 -4 9 -10z m-3946 -99 c22 -38 41 -72 41 -75 0 -3 -11
-6 -25 -6 l-25 0 0 -120 c0 -100 -2 -120 -15 -120 -8 0 -15 -4 -15 -10 0 -5
-4 -10 -10 -10 -18 0 -12 77 6 84 15 6 16 19 11 102 -5 88 -4 97 13 101 17 5
17 6 -2 39 -29 49 -34 49 -63 5 -29 -47 -29 -49 -12 -47 16 1 17 -3 17 -74 0
-33 -4 -60 -10 -60 -5 0 -10 25 -10 55 0 52 -1 55 -25 55 -14 0 -25 3 -25 6 0
20 90 155 99 149 5 -2 27 -36 50 -74z m2201 64 c0 -8 -4 -15 -10 -15 -5 0 -10
7 -10 15 0 8 5 15 10 15 6 0 10 -7 10 -15z m1750 5 c0 -5 -7 -10 -15 -10 -8 0
-15 5 -15 10 0 6 7 10 15 10 8 0 15 -4 15 -10z m-1863 -6 c-3 -3 -12 -4 -19
-1 -8 3 -5 6 6 6 11 1 17 -2 13 -5z m1863 -24 c0 -5 -7 -10 -15 -10 -8 0 -15
5 -15 10 0 6 7 10 15 10 8 0 15 -4 15 -10z m-1863 -6 c-3 -3 -12 -4 -19 -1 -8
3 -5 6 6 6 11 1 17 -2 13 -5z m-1408 -58 c47 -48 41 -72 -8 -30 l-31 26 0
-152 c0 -117 -3 -151 -12 -148 -9 3 -14 47 -18 152 l-5 148 -24 -26 c-26 -28
-41 -33 -41 -14 0 15 70 88 85 88 6 0 30 -20 54 -44z m1523 29 c0 -5 -5 -11
-11 -13 -6 -2 -11 4 -11 13 0 9 5 15 11 13 6 -2 11 -8 11 -13z m1743 5 c3 -5
-1 -10 -10 -10 -9 0 -13 5 -10 10 3 6 8 10 10 10 2 0 7 -4 10 -10z m-1858 -6
c-3 -3 -12 -4 -19 -1 -8 3 -5 6 6 6 11 1 17 -2 13 -5z m-2 -34 c-3 -5 -10 -10
-16 -10 -5 0 -9 5 -9 10 0 6 7 10 16 10 8 0 12 -4 9 -10z m1862 4 c-3 -3 -12
-4 -19 -1 -8 3 -5 6 6 6 11 1 17 -2 13 -5z m-1857 -34 c0 -5 -7 -10 -15 -10
-8 0 -15 5 -15 10 0 6 7 10 15 10 8 0 15 -4 15 -10z m1857 4 c-3 -3 -12 -4
-19 -1 -8 3 -5 6 6 6 11 1 17 -2 13 -5z m-4231 -71 c-2 -66 -25 -70 -24 -4 0
35 4 51 13 51 9 0 12 -14 11 -47z m2374 37 c0 -5 -7 -10 -15 -10 -8 0 -15 5
-15 10 0 6 7 10 15 10 8 0 15 -4 15 -10z m1857 4 c-3 -3 -12 -4 -19 -1 -8 3
-5 6 6 6 11 1 17 -2 13 -5z m-1862 -34 c3 -5 -1 -10 -10 -10 -9 0 -13 5 -10
10 3 6 8 10 10 10 2 0 7 -4 10 -10z m1860 0 c-3 -5 -10 -10 -16 -10 -5 0 -9 5
-9 10 0 6 7 10 16 10 8 0 12 -4 9 -10z m-4195 -70 c0 -27 -4 -50 -10 -50 -5 0
-10 23 -10 50 0 28 5 50 10 50 6 0 10 -22 10 -50z m4200 40 c0 -5 -7 -10 -15
-10 -8 0 -15 5 -15 10 0 6 7 10 15 10 8 0 15 -4 15 -10z m-1863 -6 c-3 -3 -12
-4 -19 -1 -8 3 -5 6 6 6 11 1 17 -2 13 -5z m1858 -24 c3 -5 -1 -10 -9 -10 -9
0 -16 5 -16 10 0 6 4 10 9 10 6 0 13 -4 16 -10z m-4155 -31 c0 -17 -5 -29 -11
-27 -6 2 -10 7 -10 11 1 4 1 16 1 27 0 11 5 20 10 20 6 0 10 -14 10 -31z
m2297 25 c-3 -3 -12 -4 -19 -1 -8 3 -5 6 6 6 11 1 17 -2 13 -5z m-2164 -42 c0
-12 -1 -33 -2 -47 -2 -48 -21 -25 -21 26 0 35 4 49 12 47 7 -3 12 -14 11 -26z
m2164 12 c-3 -3 -12 -4 -19 -1 -8 3 -5 6 6 6 11 1 17 -2 13 -5z m1860 0 c-3
-3 -12 -4 -19 -1 -8 3 -5 6 6 6 11 1 17 -2 13 -5z m251 -39 c0 -21 -3 -23 -14
-14 -11 9 -11 15 -3 25 15 19 17 18 17 -11z m-2113 5 c-3 -5 -10 -10 -16 -10
-5 0 -9 5 -9 10 0 6 7 10 16 10 8 0 12 -4 9 -10z m1862 4 c-3 -3 -12 -4 -19
-1 -8 3 -5 6 6 6 11 1 17 -2 13 -5z m293 -10 c0 -8 -5 -12 -10 -9 -6 4 -8 11
-5 16 9 14 15 11 15 -7z m50 0 c0 -8 -5 -12 -10 -9 -6 4 -8 11 -5 16 9 14 15
11 15 -7z m-4502 -39 c1 -32 -3 -45 -12 -45 -10 0 -14 13 -14 45 1 28 6 45 13
45 8 0 13 -17 13 -45z m2302 15 c0 -5 -7 -10 -15 -10 -8 0 -15 5 -15 10 0 6 7
10 15 10 8 0 15 -4 15 -10z m1857 4 c-3 -3 -12 -4 -19 -1 -8 3 -5 6 6 6 11 1
17 -2 13 -5z m-1857 -34 c0 -5 -7 -10 -15 -10 -8 0 -15 5 -15 10 0 6 7 10 15
10 8 0 15 -4 15 -10z m112 -5 c0 -5 -5 -11 -11 -13 -6 -2 -11 4 -11 13 0 9 5
15 11 13 6 -2 11 -8 11 -13z m1748 11 c0 -11 -19 -15 -25 -6 -3 5 1 10 9 10 9
0 16 -2 16 -4z m-1865 -36 c3 -5 -1 -10 -10 -10 -9 0 -13 5 -10 10 3 6 8 10
10 10 2 0 7 -4 10 -10z m1860 0 c-3 -5 -10 -10 -16 -10 -5 0 -9 5 -9 10 0 6 7
10 16 10 8 0 12 -4 9 -10z m-3780 -20 c3 -6 -1 -13 -10 -16 -19 -8 -30 0 -20
15 8 14 22 14 30 1z m597 -22 c-10 -10 -15 -10 -22 2 -6 9 -5 17 3 22 18 11
33 -10 19 -24z m168 16 c0 -12 -6 -15 -22 -10 -13 3 -48 7 -78 8 l-55 1 65 7
c36 4 71 7 78 8 6 1 12 -5 12 -14z m-342 -1 c-76 -2 -200 -2 -275 0 -76 1 -14
3 137 3 151 0 213 -2 138 -3z m3362 -3 c0 -5 -7 -10 -15 -10 -8 0 -15 5 -15
10 0 6 7 10 15 10 8 0 15 -4 15 -10z m-1863 -6 c-3 -3 -12 -4 -19 -1 -8 3 -5
6 6 6 11 1 17 -2 13 -5z m-307 -34 c8 -14 8 -26 0 -41 -7 -11 -14 -18 -17 -16
-2 3 0 14 6 26 7 13 8 22 1 26 -10 6 -14 25 -5 25 2 0 9 -9 15 -20z m38 -36
c-12 -12 -14 -9 -15 22 -1 35 -1 35 14 14 13 -19 14 -24 1 -36z m42 5 c-12
-21 -30 -34 -30 -22 0 5 5 14 12 21 9 9 9 15 0 24 -20 20 -13 32 8 13 15 -13
17 -22 10 -36z m30 31 c12 -22 -2 -60 -21 -60 -6 0 -6 6 0 18 6 10 7 28 4 40
-7 28 3 28 17 2z m38 0 c10 -16 10 -24 0 -40 -13 -20 -28 -27 -28 -12 0 4 5
13 12 20 9 9 9 15 0 24 -7 7 -12 16 -12 20 0 15 15 8 28 -12z m2017 10 c3 -5
-1 -10 -9 -10 -9 0 -16 5 -16 10 0 6 4 10 9 10 6 0 13 -4 16 -10z m-1858 -6
c-3 -3 -12 -4 -19 -1 -8 3 -5 6 6 6 11 1 17 -2 13 -5z m-1637 -24 c0 -5 -4
-10 -10 -10 -5 0 -10 5 -10 10 0 6 5 10 10 10 6 0 10 -4 10 -10z m110 0 c0 -5
-4 -10 -10 -10 -5 0 -10 5 -10 10 0 6 5 10 10 10 6 0 10 -4 10 -10z m110 0 c0
-5 -4 -10 -10 -10 -5 0 -10 5 -10 10 0 6 5 10 10 10 6 0 10 -4 10 -10z m156
-1 c10 -17 -13 -36 -27 -22 -12 12 -4 33 11 33 5 0 12 -5 16 -11z m530 0 c10
-17 -13 -36 -27 -22 -12 12 -4 33 11 33 5 0 12 -5 16 -11z m385 -16 c-12 -20
-14 -14 -5 12 4 9 9 14 11 11 3 -2 0 -13 -6 -23z m2209 17 c0 -5 -7 -10 -15
-10 -8 0 -15 5 -15 10 0 6 7 10 15 10 8 0 15 -4 15 -10z m-1863 -6 c-3 -3 -12
-4 -19 -1 -8 3 -5 6 6 6 11 1 17 -2 13 -5z m-2487 -39 c0 -8 -4 -15 -10 -15
-5 0 -10 7 -10 15 0 8 5 15 10 15 6 0 10 -7 10 -15z m58 3 c-6 -18 -28 -21
-28 -4 0 9 7 16 16 16 9 0 14 -5 12 -12z m52 -3 c0 -8 -4 -15 -10 -15 -5 0
-10 7 -10 15 0 8 5 15 10 15 6 0 10 -7 10 -15z m50 0 c0 -8 -4 -15 -10 -15 -5
0 -10 7 -10 15 0 8 5 15 10 15 6 0 10 -7 10 -15z m60 0 c0 -8 -4 -15 -9 -15
-13 0 -22 16 -14 24 11 11 23 6 23 -9z m50 0 c0 -8 -4 -15 -10 -15 -5 0 -10 7
-10 15 0 8 5 15 10 15 6 0 10 -7 10 -15z m60 0 c0 -8 -7 -15 -15 -15 -8 0 -15
7 -15 15 0 8 7 15 15 15 8 0 15 -7 15 -15z m2160 5 c0 -5 -7 -10 -15 -10 -8 0
-15 5 -15 10 0 6 7 10 15 10 8 0 15 -4 15 -10z m-898 -18 c3 -9 1 -26 -3 -37
-6 -15 -8 -11 -8 18 -1 40 4 48 11 19z m-232 -22 c0 -13 -7 -20 -20 -20 -13 0
-20 7 -20 20 0 13 7 20 20 20 13 0 20 -7 20 -20z m60 0 c0 -15 -7 -20 -25 -20
-18 0 -25 5 -25 20 0 15 7 20 25 20 18 0 25 -5 25 -20z m-120 -60 c0 -13 -7
-20 -20 -20 -13 0 -20 7 -20 20 0 13 7 20 20 20 13 0 20 -7 20 -20z m60 0 c0
-13 -7 -20 -20 -20 -13 0 -20 7 -20 20 0 13 7 20 20 20 13 0 20 -7 20 -20z
m674 -43 c1 -29 -3 -37 -16 -37 -14 0 -18 9 -18 41 0 32 3 40 16 37 12 -2 17
-14 18 -41z m44 0 c2 -28 -1 -37 -12 -37 -12 0 -16 11 -16 41 0 52 24 48 28
-4z m132 3 c0 -29 -4 -40 -15 -40 -8 0 -15 4 -15 9 0 5 -3 23 -6 40 -6 27 -4
31 15 31 18 0 21 -6 21 -40z m2520 -83 c0 -68 3 -127 6 -130 7 -7 66 31 72 45
2 4 12 8 23 8 11 0 22 7 25 15 6 15 84 22 84 8 -1 -18 -18 -35 -24 -24 -4 6
-16 11 -27 11 -14 0 -19 -7 -19 -25 0 -25 -1 -25 -25 -9 -23 15 -25 15 -25 0
0 -9 -4 -16 -10 -16 -5 0 -10 -4 -10 -8 0 -4 79 -8 175 -7 96 0 175 -3 175 -7
0 -5 -88 -8 -195 -8 -167 0 -195 -2 -195 -15 0 -8 -4 -15 -10 -15 -5 0 -10 7
-10 15 0 8 -6 15 -12 15 -10 0 -13 23 -12 85 1 47 -2 85 -5 85 -4 0 -7 9 -7
20 0 11 3 20 6 20 3 0 6 9 6 20 0 11 -4 20 -9 20 -4 0 -5 5 -2 10 18 30 25 -1
25 -113z m-3565 83 c-5 -8 -11 -8 -17 -2 -6 6 -7 16 -3 22 5 8 11 8 17 2 6 -6
7 -16 3 -22z m330 -39 c-5 -2 -13 -9 -17 -15 -5 -8 -8 -7 -8 2 0 22 -30 13
-31 -10 l-1 -23 -6 23 c-4 13 -10 23 -14 23 -5 -1 -8 1 -8 4 0 26 1 29 8 20
11 -16 52 -18 52 -3 0 9 3 9 10 -2 7 -11 10 -7 11 20 l2 35 6 -35 c4 -20 2
-37 -4 -39z m149 54 c-4 -8 -8 -15 -10 -15 -2 0 -4 7 -4 15 0 8 4 15 10 15 5
0 7 -7 4 -15z m3506 5 c0 -13 -37 -50 -50 -50 -5 0 -10 -8 -11 -17 0 -13 -2
-14 -6 -4 -5 11 -7 11 -14 0 -5 -8 -9 -9 -9 -3 0 17 38 56 49 50 5 -4 12 3 16
14 7 20 25 28 25 10z m-3030 -30 c0 -20 -5 -30 -15 -30 -10 0 -15 10 -15 30 0
20 5 30 15 30 10 0 15 -10 15 -30z m-130 -5 c0 -16 -6 -25 -15 -25 -9 0 -15 9
-15 25 0 16 6 25 15 25 9 0 15 -9 15 -25z m170 -5 c0 -11 -7 -20 -15 -20 -8 0
-15 9 -15 20 0 11 7 20 15 20 8 0 15 -9 15 -20z m-550 -13 c20 -3 19 -5 -10
-6 -19 -2 -43 -4 -52 -6 -10 -2 -18 1 -18 6 0 5 9 9 20 9 11 0 20 6 20 13 0 9
2 9 8 1 4 -7 18 -14 32 -17z m185 4 c16 -1 17 -3 5 -10 -8 -6 -18 -7 -22 -5
-4 3 -8 -1 -8 -8 0 -9 -2 -10 -8 -1 -4 6 -29 10 -60 9 -28 -1 -52 2 -52 6 0 7
59 14 100 11 14 -1 34 -2 45 -2z m3255 -43 c0 -5 -5 -7 -12 -5 -7 1 -17 -8
-23 -21 -5 -12 -16 -20 -23 -17 -20 8 -37 -6 -21 -16 11 -7 11 -9 1 -9 -7 0
-15 7 -18 15 -4 8 -10 12 -15 9 -5 -3 -9 0 -9 5 0 6 9 11 20 11 12 0 20 7 20
18 1 16 1 16 11 -1 10 -18 12 -18 30 -1 10 9 19 24 19 33 0 14 2 14 10 1 5 -8
10 -18 10 -22z m-3263 -10 c-3 -8 -6 -5 -6 6 -1 11 2 17 5 13 3 -3 4 -12 1
-19z m3303 -22 c0 -3 -4 -8 -10 -11 -5 -3 -10 -1 -10 4 0 6 5 11 10 11 6 0 10
-2 10 -4z m210 -46 l0 -30 -26 17 c-25 16 -25 17 -8 30 27 20 34 16 34 -17z
m80 5 c0 -26 -15 -32 -40 -15 -13 9 -12 12 4 25 28 21 36 19 36 -10z m67 -22
c-3 -2 -15 1 -28 7 l-22 13 24 13 c22 11 24 11 27 -8 2 -11 1 -22 -1 -25z
m-4877 17 c0 -11 -7 -20 -15 -20 -8 0 -15 9 -15 20 0 11 7 20 15 20 8 0 15 -9
15 -20z m60 0 c0 -13 -7 -20 -20 -20 -13 0 -20 7 -20 20 0 13 7 20 20 20 13 0
20 -7 20 -20z m340 -20 c0 -39 -1 -40 -35 -40 -34 0 -35 1 -35 40 0 39 1 40
35 40 34 0 35 -1 35 -40z m100 0 l0 -40 -40 0 -40 0 0 40 0 40 40 0 40 0 0
-40z m2696 -19 c-1 -37 -2 -39 -18 -24 -17 15 -16 24 5 51 14 18 15 16 13 -27z
m44 31 c0 -4 -5 -13 -12 -20 -9 -9 -9 -15 0 -24 7 -7 12 -16 12 -20 0 -15 -15
-8 -28 12 -10 16 -10 24 0 40 13 20 28 27 28 12z m26 -32 c0 -22 -2 -40 -3
-40 -1 0 -7 9 -13 20 -8 14 -7 25 2 40 7 11 13 20 14 20 1 0 1 -18 0 -40z m34
15 c-10 -12 -10 -18 0 -30 7 -9 11 -18 8 -20 -3 -3 -11 1 -17 9 -14 17 -6 56
11 56 6 0 6 -6 -2 -15z m37 -21 c1 -34 1 -35 -14 -14 -12 16 -12 24 -3 35 16
20 16 20 17 -21z m33 21 c-6 -8 -8 -20 -4 -27 5 -10 4 -10 -6 -1 -11 10 -11
15 0 28 7 8 15 15 17 15 3 0 0 -7 -7 -15z m-2630 -15 c-6 -11 -8 -32 -5 -47
l6 -28 -20 23 c-19 22 -19 25 -5 48 19 29 39 33 24 4z m30 -14 c-7 -10 -8 -16
0 -21 5 -3 10 -13 10 -22 0 -11 -5 -9 -19 8 -17 22 -17 25 -3 48 9 13 18 19
20 12 2 -6 -1 -18 -8 -25z m40 0 c-7 -10 -8 -16 0 -21 5 -3 10 -13 10 -22 0
-11 -5 -9 -19 8 -17 22 -18 25 -2 45 9 12 18 18 19 13 2 -5 -1 -16 -8 -23z
m80 0 c-7 -10 -8 -16 0 -21 5 -3 10 -11 10 -17 0 -6 -9 -3 -20 7 -18 16 -18
18 -2 40 9 13 19 19 20 14 2 -5 -1 -16 -8 -23z m-39 0 c-8 -10 -9 -16 -1 -21
5 -3 10 -11 10 -17 0 -6 -9 -3 -20 7 -19 17 -19 19 -3 37 19 21 32 16 14 -6z
m-891 -6 c0 -13 -7 -20 -20 -20 -13 0 -20 7 -20 20 0 13 7 20 20 20 13 0 20
-7 20 -20z m50 0 c0 -13 -7 -20 -20 -20 -13 0 -20 7 -20 20 0 13 7 20 20 20
13 0 20 -7 20 -20z m2760 -21 c0 -39 -1 -40 -32 -37 -30 3 -33 6 -36 41 -3 36
-3 37 32 37 35 0 36 -1 36 -41z m-1420 19 l275 -2 -295 -6 c-162 -3 -298 -4
-303 -2 -17 7 7 23 27 18 11 -3 145 -7 296 -8z m311 -3 c-1 -15 -24 -12 -29 3
-3 9 2 13 12 10 10 -1 17 -7 17 -13z m3119 -15 c0 -5 -5 -10 -11 -10 -5 0 -7
5 -4 10 3 6 8 10 11 10 2 0 4 -4 4 -10z m-4522 -38 c3 -16 -2 -22 -16 -22 -24
0 -35 23 -19 39 16 16 31 8 35 -17z m242 -11 c0 -41 -12 -51 -55 -43 -17 3
-21 12 -22 43 l-2 39 40 0 c39 0 39 0 39 -39z m630 35 c0 -3 -4 -8 -10 -11 -5
-3 -10 -1 -10 4 0 6 5 11 10 11 6 0 10 -2 10 -4z m140 -6 c0 -5 -2 -10 -4 -10
-3 0 -8 5 -11 10 -3 6 -1 10 4 10 6 0 11 -4 11 -10z m70 0 c0 -5 -2 -10 -4
-10 -3 0 -8 5 -11 10 -3 6 -1 10 4 10 6 0 11 -4 11 -10z m70 0 c0 -5 -2 -10
-4 -10 -3 0 -8 5 -11 10 -3 6 -1 10 4 10 6 0 11 -4 11 -10z m50 6 c0 -3 -4 -8
-10 -11 -5 -3 -10 -1 -10 4 0 6 5 11 10 11 6 0 10 -2 10 -4z m70 0 c0 -3 -4
-8 -10 -11 -5 -3 -10 -1 -10 4 0 6 5 11 10 11 6 0 10 -2 10 -4z m2630 -18 c0
-18 -2 -20 -9 -8 -6 8 -7 18 -5 22 9 14 14 9 14 -14z m-4220 -79 c-9 -15 -9
-24 -1 -32 6 -6 11 -18 11 -26 0 -10 -7 -8 -25 9 -30 29 -31 30 -3 65 24 31
36 19 18 -16z m49 -5 c-9 -11 -9 -18 -1 -26 7 -7 12 -19 12 -27 0 -11 -7 -8
-26 11 l-26 26 23 32 c18 24 25 28 27 15 2 -9 -2 -23 -9 -31z m114 29 c-3 -10
-10 -23 -15 -30 -6 -7 -3 -21 7 -37 21 -32 10 -34 -16 -3 -24 29 -24 36 3 64
26 28 29 29 21 6z m-63 -23 c-9 -16 -9 -25 -1 -33 6 -6 11 -18 11 -26 0 -11
-9 -5 -24 14 l-24 30 20 22 c25 27 34 23 18 -7z m4031 -27 c13 -16 12 -17 -3
-4 -15 11 -21 11 -35 0 -16 -13 -17 -12 -4 4 7 9 17 17 21 17 4 0 14 -8 21
-17z m-63 -34 c13 7 22 7 30 -1 8 -8 15 -8 27 2 8 7 15 9 15 5 0 -4 -8 -13
-17 -20 -15 -11 -15 -15 -4 -29 10 -12 17 -14 27 -5 10 8 18 8 27 1 7 -6 22
-9 34 -6 11 3 24 1 27 -4 4 -6 -2 -8 -14 -5 -16 4 -20 0 -20 -17 0 -17 4 -21
20 -17 11 3 18 2 16 -2 -3 -4 -48 -7 -100 -6 -69 0 -99 5 -108 15 -11 12 -10
12 4 1 19 -14 38 -7 38 14 0 21 -19 28 -35 15 -20 -16 -19 -3 0 17 19 18 9 36
-17 30 -16 -5 -17 -3 -7 9 8 10 15 11 25 3 9 -7 19 -7 32 0z m-3328 -14 c0 -8
-7 -15 -15 -15 -8 0 -15 7 -15 15 0 8 7 15 15 15 8 0 15 -7 15 -15z m3425 -5
c3 -5 1 -10 -4 -10 -6 0 -11 5 -11 10 0 6 2 10 4 10 3 0 8 -4 11 -10z m-2450
-28 c0 -18 -20 -15 -23 4 -3 10 1 15 10 12 7 -3 13 -10 13 -16z m2295 8 c0 -5
-2 -10 -4 -10 -3 0 -8 5 -11 10 -3 6 -1 10 4 10 6 0 11 -4 11 -10z m485 -10
c3 -5 1 -10 -4 -10 -6 0 -11 5 -11 10 0 6 2 10 4 10 3 0 8 -4 11 -10z m345 0
c0 -5 -4 -10 -10 -10 -5 0 -10 5 -10 10 0 6 5 10 10 10 6 0 10 -4 10 -10z
m-1824 -17 c-2 -10 -9 -18 -17 -18 -7 0 -15 8 -17 18 -2 11 3 17 16 17 14 0
19 -6 18 -17z m-2786 -18 c0 -28 -7 -30 -33 -11 -18 14 -18 15 0 25 27 16 33
13 33 -14z m58 0 c0 -29 -10 -32 -29 -9 -10 13 -10 17 2 25 22 14 27 11 27
-16z m52 -2 c0 -26 -1 -26 -17 -10 -16 16 -16 19 -3 27 20 13 20 13 20 -17z
m60 7 c0 -13 -5 -18 -15 -14 -12 5 -13 10 -4 20 15 19 19 18 19 -6z m60 0 c0
-13 -5 -18 -15 -14 -12 5 -13 10 -4 20 15 19 19 18 19 -6z m1060 -60 c0 -25
-4 -30 -25 -30 -21 0 -25 5 -25 30 0 25 4 30 25 30 21 0 25 -5 25 -30z m70 0
c0 -25 -4 -30 -25 -30 -21 0 -25 5 -25 30 0 25 4 30 25 30 21 0 25 -5 25 -30z
m3254 14 c3 -8 2 -12 -4 -9 -6 3 -10 10 -10 16 0 14 7 11 14 -7z m-4308 -4 c5
-5 63 -11 129 -13 l120 -3 -142 -2 c-123 -2 -142 0 -137 13 7 17 16 19 30 5z
m-421 -9 c7 -12 -12 -24 -25 -16 -11 7 -4 25 10 25 5 0 11 -4 15 -9z m723 -9
c4 -14 -34 -16 -42 -3 -6 10 13 21 28 17 6 -1 12 -8 14 -14z m2695 3 c1 -5 -6
-11 -15 -13 -11 -2 -18 3 -18 13 0 17 30 18 33 0z m1387 5 c0 -6 -12 -15 -26
-20 -15 -6 -22 -14 -18 -22 4 -7 3 -8 -4 -4 -16 10 -3 36 19 36 10 0 19 5 19
10 0 6 2 10 5 10 3 0 5 -5 5 -10z m-4518 -7 c-50 -2 -134 -2 -185 0 -50 1 -9
3 93 3 102 0 143 -2 92 -3z m2098 -28 c0 -20 -5 -25 -25 -25 -20 0 -25 5 -25
25 0 20 5 25 25 25 20 0 25 -5 25 -25z m70 -6 c0 -27 -3 -30 -27 -27 -22 2
-29 9 -31 31 -3 24 0 27 27 27 28 0 31 -3 31 -31z m2274 15 c6 -15 4 -15 -11
-3 -10 7 -20 15 -22 16 -2 2 3 3 11 3 9 0 19 -7 22 -16z m-35 -18 c8 -10 8
-16 -1 -24 -10 -8 -13 -4 -13 14 0 28 -1 28 14 10z m-3219 -42 c0 -19 -5 -24
-25 -24 -21 0 -25 5 -25 29 0 25 3 28 25 23 18 -3 25 -11 25 -28z m2819 22 c9
-10 8 -15 -2 -19 -8 -3 -13 3 -13 14 0 23 0 23 15 5z m50 0 c9 -10 8 -15 -2
-19 -8 -3 -13 3 -14 14 -2 23 1 24 16 5z m58 -9 c-6 -20 -27 -19 -27 2 0 14 5
19 15 14 9 -3 14 -10 12 -16z m50 0 c-6 -20 -27 -19 -27 2 0 14 5 19 15 14 9
-3 14 -10 12 -16z m49 12 c3 -6 -1 -18 -10 -27 -15 -15 -16 -14 -16 11 0 27
13 36 26 16z m50 0 c3 -6 -1 -18 -10 -27 -15 -15 -16 -14 -16 11 0 27 13 36
26 16z m178 -5 c3 -8 2 -12 -4 -9 -6 3 -10 10 -10 16 0 14 7 11 14 -7z m-3424
-9 c0 -8 -7 -15 -15 -15 -8 0 -15 7 -15 15 0 8 7 15 15 15 8 0 15 -7 15 -15z
m978 -32 c-4 -22 -22 -20 -26 1 -2 10 3 16 13 16 10 0 15 -7 13 -17z m172 -8
c0 -20 -5 -25 -25 -25 -20 0 -25 5 -25 25 0 20 5 25 25 25 20 0 25 -5 25 -25z
m1580 -15 c0 -5 -4 -10 -10 -10 -5 0 -10 5 -10 10 0 6 5 10 10 10 6 0 10 -4
10 -10z m-205 -19 c7 -12 -12 -24 -25 -16 -11 7 -4 25 10 25 5 0 11 -4 15 -9z"/>
<path d="M1952 2448 c6 -18 28 -21 28 -4 0 9 -7 16 -16 16 -9 0 -14 -5 -12
-12z"/>
<path d="M2000 2444 c0 -17 22 -14 28 4 2 7 -3 12 -12 12 -9 0 -16 -7 -16 -16z"/>
<path d="M2015 2411 c-3 -5 -1 -12 5 -16 12 -7 30 2 30 16 0 12 -27 12 -35 0z"/>
<path d="M2110 2405 c0 -9 5 -15 11 -13 6 2 11 8 11 13 0 5 -5 11 -11 13 -6 2
-11 -4 -11 -13z"/>
<path d="M2760 1590 l0 -430 723 0 c398 0 726 2 728 4 2 2 3 196 1 430 l-2
426 -725 0 -725 0 0 -430z m867 323 c-2 -5 -57 -135 -123 -290 -115 -275 -119
-283 -146 -283 -15 0 -28 4 -28 8 0 4 48 120 106 257 58 138 112 265 119 283
12 26 19 32 45 32 17 0 29 -3 27 -7z m-433 -122 c17 -18 14 -22 -78 -97 -53
-43 -96 -80 -95 -83 0 -3 32 -32 72 -64 40 -32 83 -67 96 -78 l24 -20 -20 -21
-21 -20 -120 102 -121 102 67 57 c135 115 167 141 173 141 3 0 14 -9 23 -19z
m726 -77 c63 -53 116 -97 118 -99 1 -1 -51 -48 -117 -104 l-120 -102 -21 21
c-19 19 -20 23 -6 33 50 38 175 143 176 148 0 3 -43 40 -95 83 -91 75 -95 80
-79 97 10 11 20 19 23 19 3 0 58 -44 121 -96z"/>
<path d="M1927 1720 c-63 -16 -112 -47 -160 -100 -61 -68 -81 -129 -75 -230 4
-67 10 -87 38 -134 65 -107 178 -164 301 -153 66 6 154 44 154 67 0 8 8 14 16
12 19 -3 62 50 89 110 25 54 26 166 4 232 -22 63 -100 148 -163 175 -58 25
-150 34 -204 21z m107 -242 c-20 -46 -45 -105 -56 -133 -22 -56 -31 -69 -46
-64 -6 2 9 50 34 109 67 159 73 170 88 170 12 0 7 -19 -20 -82z m-213 -28
l-44 -38 34 -31 c19 -17 37 -31 42 -31 9 0 9 -30 -1 -30 -6 0 -88 64 -112 87
-3 3 20 27 50 53 37 33 58 45 65 38 7 -6 -4 -22 -34 -48z m422 -22 c12 -9 20
-18 17 -20 -3 -2 -29 -24 -58 -47 -35 -29 -57 -40 -63 -34 -6 6 6 23 36 47
l45 37 -42 36 c-24 19 -45 37 -47 38 -1 2 0 9 4 15 4 7 21 -1 47 -22 22 -18
50 -41 61 -50z m-187 -275 c-3 -3 -12 0 -21 7 -14 11 -13 14 2 26 16 11 18 10
21 -8 2 -11 1 -22 -2 -25z m51 17 c2 -23 -10 -26 -26 -6 -9 11 -9 15 1 19 22
9 24 8 25 -13z m43 -2 c0 -16 -3 -19 -11 -11 -6 6 -8 16 -5 22 11 17 16 13 16
-11z"/>
<path d="M4850 1715 c-33 -35 -31 -81 5 -113 52 -44 125 -7 125 63 0 66 -84
99 -130 50z m88 -17 c22 -22 15 -67 -12 -80 -31 -14 -53 -5 -68 27 -9 21 -8
28 7 45 20 22 55 26 73 8z"/>
<path d="M4880 1675 c-11 -13 -11 -19 3 -32 21 -21 49 -9 45 19 -4 28 -30 35
-48 13z"/>
<path d="M5148 1679 c-10 -5 -18 -14 -18 -19 0 -14 164 -109 173 -101 21 20 0
57 -52 93 -57 40 -74 44 -103 27z"/>
<path d="M4997 1463 c-101 -164 -108 -178 -91 -190 10 -7 21 -13 25 -13 4 0
51 71 105 158 53 86 104 165 112 175 14 16 14 19 -4 32 -10 8 -23 14 -29 14
-5 0 -59 -79 -118 -176z"/>
<path d="M5074 1443 c-53 -87 -103 -167 -110 -178 -12 -19 -11 -23 15 -38 l29
-17 111 178 110 177 -22 17 c-12 10 -25 18 -29 18 -3 0 -50 -71 -104 -157z"/>
<path d="M5140 1389 c-58 -94 -106 -176 -108 -184 -4 -18 29 -28 44 -13 6 7
58 87 114 176 95 153 100 165 83 178 -10 7 -20 13 -23 13 -3 0 -52 -77 -110
-170z"/>
<path d="M4872 1219 c3 -51 5 -53 50 -81 l46 -29 45 22 45 22 -56 36 c-32 20
-74 47 -95 60 l-38 23 3 -53z m78 -43 c0 -3 -4 -8 -10 -11 -5 -3 -10 -1 -10 4
0 6 5 11 10 11 6 0 10 -2 10 -4z"/>
<path d="M4875 1105 c0 -27 3 -34 15 -29 8 3 23 9 33 11 9 3 17 8 17 12 0 6
-53 41 -62 41 -1 0 -3 -16 -3 -35z"/>
<path d="M4655 1536 c-17 -7 -36 -20 -43 -29 -12 -14 -10 -19 18 -36 45 -27
60 -18 60 35 0 24 -1 44 -2 44 -2 -1 -17 -7 -33 -14z"/>
<path d="M4712 1503 c2 -26 8 -48 13 -50 6 -1 25 6 44 18 32 19 32 21 16 39
-9 10 -30 23 -47 29 l-29 10 3 -46z"/>
<path d="M4586 1473 c-9 -9 -7 -91 2 -97 13 -8 72 32 72 48 0 15 -65 58 -74
49z"/>
<path d="M4773 1458 c-18 -11 -33 -28 -33 -37 0 -18 63 -55 74 -44 9 9 7 91
-1 96 -5 2 -23 -5 -40 -15z"/>
<path d="M4633 1378 c-18 -11 -33 -24 -33 -29 0 -11 60 -49 78 -49 7 0 12 14
12 39 0 52 -17 63 -57 39z"/>
<path d="M4722 1392 c-15 -5 -16 -92 -1 -92 16 0 79 40 79 50 0 12 -64 47 -78
42z"/>
<path d="M4600 380 c0 -14 7 -20 21 -20 18 0 19 -3 9 -15 -13 -16 -6 -35 15
-35 23 0 28 20 11 39 -9 10 -16 25 -16 34 0 10 -8 17 -20 17 -13 0 -20 -7 -20
-20z"/>
<path d="M4682 333 c2 -10 10 -18 18 -18 8 0 16 8 18 18 2 12 -3 17 -18 17
-15 0 -20 -5 -18 -17z"/>
</g>
</svg>
