<?xml version="1.0" standalone="no"?>
<!DOCTYPE svg PUBLIC "-//W3C//DTD SVG 20010904//EN"
 "http://www.w3.org/TR/2001/REC-SVG-20010904/DTD/svg10.dtd">
<svg version="1.0" xmlns="http://www.w3.org/2000/svg"
 width="512.000000pt" height="512.000000pt" viewBox="0 0 512.000000 512.000000"
 preserveAspectRatio="xMidYMid meet">

<g transform="translate(0.000000,512.000000) scale(0.100000,-0.100000)"
fill="#275ce4" stroke="none">
<path d="M1720 5105 c-189 -24 -356 -68 -518 -137 -480 -206 -843 -568 -1047
-1044 -227 -529 -200 -1169 71 -1671 l45 -83 -131 -471 c-72 -260 -129 -474
-126 -476 2 -2 216 55 475 127 l472 131 82 -45 c251 -135 541 -211 847 -222
918 -34 1734 582 1960 1477 168 669 -28 1369 -520 1859 -425 424 -1019 628
-1610 555z m362 -899 c173 -37 329 -159 408 -319 44 -91 60 -159 60 -267 0
-104 -14 -167 -54 -256 -40 -87 -86 -141 -248 -290 l-148 -135 0 -115 0 -114
-145 0 -145 0 0 184 0 184 117 109 c314 289 323 301 323 433 0 96 -28 158 -98
221 -55 50 -128 79 -197 79 -143 0 -295 -135 -295 -262 l0 -38 -150 0 -150 0
0 48 c0 148 102 332 237 431 145 105 315 143 485 107z m18 -1946 l0 -150 -145
0 -145 0 0 150 0 150 145 0 145 0 0 -150z"/>
<path d="M4202 2988 c-95 -1110 -960 -1975 -2067 -2069 -77 -7 -141 -13 -143
-14 -7 -5 101 -178 157 -252 77 -103 253 -271 366 -352 108 -76 315 -179 442
-220 177 -58 297 -75 508 -75 157 0 209 4 303 22 154 31 303 81 434 147 l109
54 396 -110 c218 -60 398 -108 400 -106 2 2 -46 182 -106 400 l-110 396 54
109 c66 131 116 280 147 434 18 94 22 146 22 303 0 211 -17 331 -75 508 -41
127 -144 334 -220 442 -81 113 -249 289 -352 366 -63 47 -239 159 -250 159 -2
0 -9 -64 -15 -142z"/>
</g>
</svg>
