<?xml version="1.0" standalone="no"?>
<!DOCTYPE svg PUBLIC "-//W3C//DTD SVG 20010904//EN"
 "http://www.w3.org/TR/2001/REC-SVG-20010904/DTD/svg10.dtd">
<svg version="1.0" xmlns="http://www.w3.org/2000/svg"
 width="512.000000pt" height="512.000000pt" viewBox="0 0 512.000000 512.000000"
 preserveAspectRatio="xMidYMid meet">

<g transform="translate(0.000000,512.000000) scale(0.100000,-0.100000)"
fill="#8735e0" stroke="none">
<path d="M1106 3819 c-509 -66 -936 -444 -1066 -945 -81 -316 -36 -656 127
-939 369 -643 1187 -837 1805 -430 93 62 173 137 828 790 626 624 733 727 786
753 96 48 168 66 269 65 156 0 271 -49 385 -163 223 -223 226 -552 5 -776
-178 -181 -427 -219 -659 -102 -43 22 -97 67 -186 154 l-126 123 -252 -252
-253 -253 139 -136 c158 -153 291 -248 434 -310 592 -255 1269 -36 1601 518
328 547 185 1266 -328 1655 -430 326 -1013 343 -1467 44 -93 -62 -173 -137
-828 -790 -780 -778 -756 -756 -906 -801 -93 -28 -230 -23 -324 11 -189 69
-325 223 -365 412 -18 86 -18 140 0 226 40 190 175 343 365 412 94 34 231 39
324 11 118 -35 174 -72 306 -202 l126 -123 252 252 253 253 -139 136 c-158
153 -291 248 -434 310 -213 92 -448 125 -672 97z"/>
</g>
</svg>
