<?xml version="1.0" standalone="no"?>
<!DOCTYPE svg PUBLIC "-//W3C//DTD SVG 20010904//EN"
 "http://www.w3.org/TR/2001/REC-SVG-20010904/DTD/svg10.dtd">
<svg version="1.0" xmlns="http://www.w3.org/2000/svg"
 width="300.000000pt" height="68.000000pt" viewBox="0 0 300.000000 68.000000"
 preserveAspectRatio="xMidYMid meet">

<g transform="translate(0.000000,68.000000) scale(0.100000,-0.100000)"
fill="#fc4c02" stroke="none">
<path d="M10 345 l0 -335 1490 0 1490 0 0 335 0 335 -1490 0 -1490 0 0 -335z
m290 140 c23 -36 46 -65 50 -65 4 0 27 29 50 65 l42 65 55 0 54 0 -57 -82
c-32 -46 -64 -90 -71 -100 -13 -14 -7 -27 53 -110 36 -51 70 -97 74 -101 4 -4
42 82 85 193 l78 200 57 0 57 0 76 -198 c42 -109 77 -201 77 -205 0 -4 -22 -7
-49 -7 -48 0 -50 1 -61 35 l-12 35 -88 0 -88 0 -12 -35 -12 -35 -104 0 -104 0
-46 70 c-26 39 -50 70 -54 70 -3 0 -28 -31 -54 -70 l-48 -70 -55 0 c-43 0 -53
3 -46 12 6 7 40 55 77 106 l66 92 -63 88 c-35 48 -66 93 -71 100 -5 9 6 12 47
12 l55 0 42 -65z m897 -61 l50 -127 49 124 50 124 62 3 62 3 0 -206 0 -205
-45 0 -44 0 -3 136 -3 136 -53 -136 c-46 -117 -56 -136 -75 -136 -20 0 -30 19
-77 142 l-55 143 -3 -143 -3 -142 -44 0 -45 0 0 205 0 205 63 0 64 0 50 -126z
m443 -79 l0 -205 -45 0 -45 0 0 205 0 205 45 0 45 0 0 -205z m270 78 l95 -127
3 127 3 127 44 0 45 0 0 -205 0 -205 -47 0 -48 1 -95 130 -95 131 -3 -131 -3
-131 -44 0 -45 0 0 205 0 205 48 0 48 0 94 -127z m520 -78 l0 -205 -45 0 -45
0 0 205 0 205 45 0 45 0 0 -205z m261 80 l94 -126 3 126 3 125 44 0 45 0 0
-205 0 -205 -45 0 -44 0 -93 126 -93 126 -3 -127 -3 -126 -47 3 -47 3 -2 194
c-1 107 0 199 3 203 3 4 25 8 49 8 l43 0 93 -125z m-437 -214 c21 -23 14 -56
-15 -72 -46 -24 -93 24 -64 67 19 29 55 31 79 5z"/>
<path d="M743 387 c-12 -34 -25 -70 -28 -79 -6 -16 0 -18 55 -18 55 0 61 2 55
18 -4 9 -16 42 -26 72 -11 30 -23 58 -27 62 -4 4 -17 -21 -29 -55z"/>
</g>
</svg>
